<svg id="Layer_1" data-name="Layer 1" xmlns="http://www.w3.org/2000/svg" viewBox="0 0 728.7068 785.151">
  <title>Aufbau_Principle-en</title>
  <g>
    <line x1="389.5747" y1="121.3871" x2="387.9835" y2="122.5988" fill="none" stroke="#c30005" stroke-linecap="round" stroke-linejoin="round" stroke-width="3"/>
    <line x1="384.8226" y1="125.0056" x2="146.1766" y2="306.7202" fill="none" stroke-dasharray="3.9729 3.9729" stroke-linecap="round" stroke-linejoin="round" stroke-width="3" stroke="#c30005"/>
    <line x1="144.5961" y1="307.9236" x2="143.0049" y2="309.1353" fill="none" stroke="#c30005" stroke-linecap="round" stroke-linejoin="round" stroke-width="3"/>
    <polygon points="143.481 293.352 146.44 293.86 143.919 308.435 158.642 309.885 158.345 312.873 140.415 311.104 143.481 293.352" fill="#c30005"/>
  </g>
  <g>
    <line x1="307.3176" y1="71.1035" x2="305.7264" y2="72.3151" fill="none" stroke="#c30005" stroke-linecap="round" stroke-linejoin="round" stroke-width="3"/>
    <line x1="302.5591" y1="74.7268" x2="145.777" y2="194.107" fill="none" stroke-dasharray="3.981 3.981" stroke-linecap="round" stroke-linejoin="round" stroke-width="3" stroke="#c30005"/>
    <line x1="144.1933" y1="195.3128" x2="142.6021" y2="196.5244" fill="none" stroke="#c30005" stroke-linecap="round" stroke-linejoin="round" stroke-width="3"/>
    <polygon points="143.078 180.741 146.037 181.249 143.516 195.825 158.239 197.274 157.942 200.262 140.012 198.493 143.078 180.741" fill="#c30005"/>
  </g>
  <g>
    <line x1="262.3899" y1="1.5" x2="260.7987" y2="2.7117" fill="none" stroke="#c30005" stroke-linecap="round" stroke-linejoin="round" stroke-width="3"/>
    <line x1="257.6165" y1="5.1347" x2="144.6487" y2="91.1529" fill="none" stroke-dasharray="3.9997 3.9997" stroke-linecap="round" stroke-linejoin="round" stroke-width="3" stroke="#c30005"/>
    <line x1="143.0576" y1="92.3644" x2="141.4664" y2="93.576" fill="none" stroke="#c30005" stroke-linecap="round" stroke-linejoin="round" stroke-width="3"/>
    <polygon points="141.942 77.792 144.901 78.301 142.381 92.876 157.103 94.326 156.806 97.313 138.876 95.545 141.942 77.792" fill="#c30005"/>
  </g>
  <g>
    <line x1="439.196" y1="185.7208" x2="437.6267" y2="186.9608" fill="none" stroke="#c30005" stroke-linecap="round" stroke-linejoin="round" stroke-width="3"/>
    <line x1="434.5207" y1="189.4151" x2="144.1014" y2="418.8948" fill="none" stroke-dasharray="3.9587 3.9587" stroke-linecap="round" stroke-linejoin="round" stroke-width="3" stroke="#c30005"/>
    <line x1="142.5484" y1="420.1219" x2="140.9792" y2="421.3619" fill="none" stroke="#c30005" stroke-linecap="round" stroke-linejoin="round" stroke-width="3"/>
    <polygon points="141.172 405.572 144.14 406.027 141.881 420.646 156.627 421.831 156.384 424.824 138.425 423.377 141.172 405.572" fill="#c30005"/>
  </g>
  <g>
    <line x1="528.4313" y1="223.6992" x2="526.8709" y2="224.9503" fill="none" stroke="#c30005" stroke-linecap="round" stroke-linejoin="round" stroke-width="3"/>
    <line x1="523.7545" y1="227.4487" x2="145.1065" y2="531.0113" fill="none" stroke-dasharray="3.9943 3.9943" stroke-linecap="round" stroke-linejoin="round" stroke-width="3" stroke="#c30005"/>
    <line x1="143.5482" y1="532.2605" x2="141.9878" y2="533.5115" fill="none" stroke="#c30005" stroke-linecap="round" stroke-linejoin="round" stroke-width="3"/>
    <polygon points="142.069 517.721 145.04 518.155 142.884 532.789 157.639 533.87 157.416 536.864 139.448 535.544 142.069 517.721" fill="#c30005"/>
  </g>
  <g>
    <line x1="574.1173" y1="302.2515" x2="572.5568" y2="303.5025" fill="none" stroke="#c30005" stroke-linecap="round" stroke-linejoin="round" stroke-width="3"/>
    <line x1="569.4227" y1="306.0152" x2="144.7386" y2="646.4849" fill="none" stroke-dasharray="4.0171 4.0171" stroke-linecap="round" stroke-linejoin="round" stroke-width="3" stroke="#c30005"/>
    <line x1="143.1715" y1="647.7412" x2="141.6111" y2="648.9922" fill="none" stroke="#c30005" stroke-linecap="round" stroke-linejoin="round" stroke-width="3"/>
    <polygon points="141.692 633.202 144.663 633.636 142.508 648.27 157.262 649.351 157.04 652.345 139.071 651.025 141.692 633.202" fill="#c30005"/>
  </g>
  <g>
    <line x1="669.0113" y1="335.0424" x2="667.4494" y2="336.2916" fill="none" stroke="#c30005" stroke-linecap="round" stroke-linejoin="round" stroke-width="3"/>
    <line x1="664.3235" y1="338.7917" x2="146.9939" y2="752.5551" fill="none" stroke-dasharray="4.0027 4.0027" stroke-linecap="round" stroke-linejoin="round" stroke-width="3" stroke="#c30005"/>
    <line x1="145.431" y1="753.8051" x2="143.8691" y2="755.0543" fill="none" stroke="#c30005" stroke-linecap="round" stroke-linejoin="round" stroke-width="3"/>
    <polygon points="143.968 739.264 146.939 739.701 144.766 754.333 159.52 755.431 159.294 758.425 141.326 757.084 143.968 739.264" fill="#c30005"/>
  </g>
  <g>
    <line x1="727.2068" y1="403.7898" x2="725.6464" y2="405.0408" fill="none" stroke="#c30005" stroke-linecap="round" stroke-linejoin="round" stroke-width="3"/>
    <line x1="722.5445" y1="407.5276" x2="258.8105" y2="779.3037" fill="none" stroke-dasharray="3.9757 3.9757" stroke-linecap="round" stroke-linejoin="round" stroke-width="3" stroke="#c30005"/>
    <line x1="257.2596" y1="780.5471" x2="255.6991" y2="781.7982" fill="none" stroke="#c30005" stroke-linecap="round" stroke-linejoin="round" stroke-width="3"/>
    <polygon points="255.78 766.007 258.751 766.442 256.596 781.076 271.35 782.157 271.128 785.151 253.159 783.831 255.78 766.007" fill="#c30005"/>
  </g>
  <g>
    <circle cx="197.526" cy="48.2286" r="41.4607" fill="#13bfbf"/>
    <circle cx="197.526" cy="156.3216" r="41.4607" fill="#13bfbf"/>
    <circle cx="197.526" cy="264.4146" r="41.4607" fill="#13bfbf"/>
    <circle cx="197.526" cy="372.5076" r="41.4607" fill="#13bfbf"/>
    <circle cx="197.526" cy="480.6006" r="41.4607" fill="#13bfbf"/>
    <circle cx="197.526" cy="588.6936" r="41.4607" fill="#13bfbf"/>
    <circle cx="197.526" cy="696.7866" r="41.4607" fill="#13bfbf"/>
  </g>
  <g>
    <circle cx="341.6521" cy="156.3216" r="41.4607" fill="#00f96a"/>
    <circle cx="341.6521" cy="264.4146" r="41.4607" fill="#00f96a"/>
    <circle cx="341.6521" cy="372.5076" r="41.4607" fill="#00f96a"/>
    <circle cx="341.6521" cy="480.6006" r="41.4607" fill="#00f96a"/>
    <circle cx="341.6521" cy="588.6936" r="41.4607" fill="#00f96a"/>
    <circle cx="341.6521" cy="696.7866" r="41.4607" fill="#00f96a"/>
  </g>
  <g>
    <circle cx="493.8643" cy="264.4146" r="41.4607" fill="#710069"/>
    <circle cx="493.8643" cy="372.5076" r="41.4607" fill="#710069"/>
    <circle cx="493.8643" cy="480.6006" r="41.4607" fill="#710069"/>
    <circle cx="493.8643" cy="588.6936" r="41.4607" fill="#710069"/>
  </g>
  <g>
    <circle cx="639.8861" cy="372.5076" r="41.4607" fill="#ffa921"/>
    <circle cx="639.8861" cy="480.6006" r="41.4607" fill="#ffa921"/>
  </g>
  <g>
    <g style="isolation: isolate">
      <path d="M689.1929,210.5945h-6.2617V167.6292h-4.2251v-5.168h10.4868Z" transform="translate(-499.4883 -139.491)" fill="#fff"/>
      <path d="M719.8228,183.2083a13.1375,13.1375,0,0,0-4.8662-1.1695,4.7832,4.7832,0,0,0-3.1494.9839,3.3006,3.3006,0,0,0-1.1885,2.686,4.441,4.441,0,0,0,.9961,2.6866,31.5652,31.5652,0,0,0,4.1118,4.02,22.1119,22.1119,0,0,1,4.417,4.83,8.8572,8.8572,0,0,1,1.3013,4.7016,8.6312,8.6312,0,0,1-2.6406,6.4576,9.233,9.233,0,0,1-6.7144,2.5683,17.2927,17.2927,0,0,1-6.1865-1.396v-5.0923a16.1226,16.1226,0,0,0,5.8325,1.3956,3.8554,3.8554,0,0,0,2.7832-.9634,3.4242,3.4242,0,0,0,1.0034-2.5894,5.3071,5.3071,0,0,0-1.3384-3.2129,30.3813,30.3813,0,0,0-4.6215-4.3423q-4.7161-3.8136-4.7154-8.7617a8.8356,8.8356,0,0,1,9.0157-9.063,18.9409,18.9409,0,0,1,5.96,1.2447Z" transform="translate(-499.4883 -139.491)" fill="#fff"/>
    </g>
    <g style="isolation: isolate">
      <path d="M675.1226,285.8425q-.1135-10.1469,2.7349-13.146t8.4687-2.999q10.2218,0,10.2227,10.7129a28.9774,28.9774,0,0,1-1.3584,8.3179,81.3583,81.3583,0,0,1-4.751,11.4863l-6.0332,12.335h10.7466v5.8847H674.1417l8.4091-16.6a5.69,5.69,0,0,0,.6973-1.32q.4336-1.0181.6226-1.3955a91.2171,91.2171,0,0,0,4.622-10.5054,23.3321,23.3321,0,0,0,1.3794-7.5625,7.0948,7.0948,0,0,0-1.061-4.1675,3.7207,3.7207,0,0,0-6.5557,1.2071,33.8694,33.8694,0,0,0-.7954,7.7519Z" transform="translate(-499.4883 -139.491)" fill="#fff"/>
      <path d="M719.8228,291.0481a13.1371,13.1371,0,0,0-4.8662-1.1694,4.7838,4.7838,0,0,0-3.1494.9838,3.3006,3.3006,0,0,0-1.1885,2.6861,4.4407,4.4407,0,0,0,.9961,2.6865,31.5586,31.5586,0,0,0,4.1118,4.0195,22.1164,22.1164,0,0,1,4.417,4.83,8.8578,8.8578,0,0,1,1.3013,4.7017,8.6308,8.6308,0,0,1-2.6406,6.4575,9.2331,9.2331,0,0,1-6.7144,2.5684,17.2948,17.2948,0,0,1-6.1865-1.396v-5.0923a16.1222,16.1222,0,0,0,5.8325,1.3955,3.8554,3.8554,0,0,0,2.7832-.9634,3.424,3.424,0,0,0,1.0034-2.5893,5.3068,5.3068,0,0,0-1.3384-3.2129,30.3763,30.3763,0,0,0-4.6215-4.3423q-4.7161-3.8138-4.7154-8.7617a8.8356,8.8356,0,0,1,9.0157-9.063,18.94,18.94,0,0,1,5.96,1.2446Z" transform="translate(-499.4883 -139.491)" fill="#fff"/>
    </g>
    <g style="isolation: isolate">
      <path d="M691.5787,400.9065a8.8708,8.8708,0,0,1,3.8886,3.7754q1.1559,2.3027,1.1568,7.7383,0,7.626-2.6592,10.9658t-8.77,3.3408q-5.7342,0-7.9028-3.0742t-2.2447-9.8262h6.1114q.076,7.28,4.3569,7.28a3.5784,3.5784,0,0,0,3.39-1.8867,12.9882,12.9882,0,0,0,1.042-5.9971q0-6.1479-1.6118-7.8086t-5.5552-1.6221v-5.7714q4.314,0,5.7032-1.5284,1.388-1.5263,1.3886-6.167a13.1853,13.1853,0,0,0-.8637-5.5644,3.3455,3.3455,0,0,0-5.855.0195,14.3965,14.3965,0,0,0-.8257,5.47h-6.1865q.0747-7.1674,2.5083-10.0722t7.601-2.9043q5.469,0,7.8838,3.0195t2.4146,9.8154q0,5.4756-1.12,7.4756A8.4,8.4,0,0,1,691.5787,400.9065Z" transform="translate(-499.4883 -139.491)" fill="#fff"/>
      <path d="M719.8228,398.8879a13.1351,13.1351,0,0,0-4.8662-1.1689,4.7831,4.7831,0,0,0-3.1494.9834,3.3021,3.3021,0,0,0-1.1885,2.6865,4.4416,4.4416,0,0,0,.9961,2.6865,31.5574,31.5574,0,0,0,4.1118,4.02,22.1226,22.1226,0,0,1,4.417,4.8291,8.8577,8.8577,0,0,1,1.3013,4.7021,8.63,8.63,0,0,1-2.6406,6.4571,9.2314,9.2314,0,0,1-6.7144,2.5683,17.2907,17.2907,0,0,1-6.1865-1.3955v-5.0928a16.1222,16.1222,0,0,0,5.8325,1.3955,3.8573,3.8573,0,0,0,2.7832-.9629,3.425,3.425,0,0,0,1.0034-2.59,5.3071,5.3071,0,0,0-1.3384-3.2129,30.3835,30.3835,0,0,0-4.6215-4.3418q-4.7161-3.8145-4.7154-8.7617a8.8356,8.8356,0,0,1,9.0157-9.0635,18.9318,18.9318,0,0,1,5.96,1.2451Z" transform="translate(-499.4883 -139.491)" fill="#fff"/>
    </g>
    <g style="isolation: isolate">
      <path d="M696.775,520.761h-2.6407l-.0752.0752v13.2783h-6.3374V520.761H675.0469v-5.9981l13.0523-29.3852h5.96V514.99h2.7159Zm-8.9776-5.7715V497.7683l-.1509.0606L680.065,514.99Z" transform="translate(-499.4883 -139.491)" fill="#fff"/>
      <path d="M719.8228,506.7278a13.1355,13.1355,0,0,0-4.8662-1.169,4.7836,4.7836,0,0,0-3.1494.9834,3.3023,3.3023,0,0,0-1.1885,2.6866,4.4419,4.4419,0,0,0,.9961,2.6865,31.5652,31.5652,0,0,0,4.1118,4.0195,22.1248,22.1248,0,0,1,4.417,4.8291,8.8583,8.8583,0,0,1,1.3013,4.7022,8.63,8.63,0,0,1-2.6406,6.457,9.2311,9.2311,0,0,1-6.7144,2.5684,17.2911,17.2911,0,0,1-6.1865-1.3956v-5.0927a16.1243,16.1243,0,0,0,5.8325,1.3955,3.8573,3.8573,0,0,0,2.7832-.9629,3.4252,3.4252,0,0,0,1.0034-2.59,5.3066,5.3066,0,0,0-1.3384-3.2128,30.3784,30.3784,0,0,0-4.6215-4.3418q-4.7161-3.8145-4.7154-8.7618a8.8348,8.8348,0,0,1,9.0157-9.0629,18.9262,18.9262,0,0,1,5.96,1.2446Z" transform="translate(-499.4883 -139.491)" fill="#fff"/>
    </g>
    <g style="isolation: isolate">
      <path d="M696.2471,599.7815H685.3336l-1.5474,10.9014q12.3478,1.1308,12.3477,14.5058a19.0421,19.0421,0,0,1-3.9986,12.4151,12.4139,12.4139,0,0,1-10.0342,4.916,16.281,16.281,0,0,1-7.8086-2.376l1.8536-5.6582a7.13,7.13,0,0,1,.9453.49,9.6317,9.6317,0,0,0,4.4624,1.2823,6.8425,6.8425,0,0,0,5.7856-2.8233q2.1174-2.8227,2.1177-7.7939,0-4.5543-2.1758-6.9844a7.97,7.97,0,0,0-6.2617-2.4287,21.5371,21.5371,0,0,0-4.2.6035l3.5083-23.01h15.9189Z" transform="translate(-499.4883 -139.491)" fill="#fff"/>
      <path d="M719.8228,614.5686a13.1391,13.1391,0,0,0-4.8662-1.17,4.7831,4.7831,0,0,0-3.1494.9834,3.302,3.302,0,0,0-1.1885,2.6865,4.44,4.44,0,0,0,.9961,2.6865,31.564,31.564,0,0,0,4.1118,4.02,22.1033,22.1033,0,0,1,4.417,4.83,8.8548,8.8548,0,0,1,1.3013,4.7012,8.632,8.632,0,0,1-2.6406,6.458,9.2344,9.2344,0,0,1-6.7144,2.5674,17.2907,17.2907,0,0,1-6.1865-1.3955V635.843a16.1265,16.1265,0,0,0,5.8325,1.3965,3.8535,3.8535,0,0,0,2.7832-.9639,3.4235,3.4235,0,0,0,1.0034-2.59,5.3093,5.3093,0,0,0-1.3384-3.2129,30.3784,30.3784,0,0,0-4.6215-4.3418q-4.7161-3.8145-4.7154-8.7617a8.8356,8.8356,0,0,1,9.0157-9.0635,18.929,18.929,0,0,1,5.96,1.2451Z" transform="translate(-499.4883 -139.491)" fill="#fff"/>
    </g>
    <g style="isolation: isolate">
      <path d="M683.9019,720.5354a8.9226,8.9226,0,0,1,3.7637-1.0322,8.1157,8.1157,0,0,1,6.6626,3.0224q2.447,3.022,2.4468,11.7452,0,8.99-2.7159,12.539t-8.4873,3.55q-5.4323,0-7.9028-3.7t-2.4712-11.7441a57.0228,57.0228,0,0,1,.5474-8.6289,39.2544,39.2544,0,0,1,1.8857-7.2129,87.1874,87.1874,0,0,1,3.544-8.2842l4.4829-9.1279H692.89l-5.8291,11.7392Zm-1.8008,14.4531a23.8451,23.8451,0,0,0,.83,7.54A3.1227,3.1227,0,0,0,686.1,744.74q3.8847,0,3.8852-7.8994l-.0752-.6045v-.7939l.0752-1.625v-.7559q0-4.8-1.15-6.1983a3.3819,3.3819,0,0,0-2.6591-1.3994,3.3347,3.3347,0,0,0-3.2632,1.7207q-.8869,1.7182-.8863,5.877l.0752.68Z" transform="translate(-499.4883 -139.491)" fill="#fff"/>
      <path d="M719.8228,722.4084a13.141,13.141,0,0,0-4.8662-1.17,4.7836,4.7836,0,0,0-3.1494.9834,3.3022,3.3022,0,0,0-1.1885,2.6865,4.44,4.44,0,0,0,.9961,2.6866,31.5652,31.5652,0,0,0,4.1118,4.0195,22.1034,22.1034,0,0,1,4.417,4.83,8.8543,8.8543,0,0,1,1.3013,4.7012,8.6323,8.6323,0,0,1-2.6406,6.458,9.2343,9.2343,0,0,1-6.7144,2.5673,17.2907,17.2907,0,0,1-6.1865-1.3955v-5.0927a16.1282,16.1282,0,0,0,5.8325,1.3964,3.8534,3.8534,0,0,0,2.7832-.9638,3.4239,3.4239,0,0,0,1.0034-2.59,5.3093,5.3093,0,0,0-1.3384-3.2129,30.3885,30.3885,0,0,0-4.6215-4.3418q-4.7161-3.8144-4.7154-8.7617a8.8356,8.8356,0,0,1,9.0157-9.0634,18.929,18.929,0,0,1,5.96,1.2451Z" transform="translate(-499.4883 -139.491)" fill="#fff"/>
    </g>
    <g style="isolation: isolate">
      <path d="M698.2462,809.5764,684.4039,857.634l-6.3389-.0752,12.1436-42.0224h-12.898v-5.96Z" transform="translate(-499.4883 -139.491)" fill="#fff"/>
      <path d="M719.8228,830.2483a13.1391,13.1391,0,0,0-4.8662-1.17,4.7831,4.7831,0,0,0-3.1494.9834,3.302,3.302,0,0,0-1.1885,2.6865,4.44,4.44,0,0,0,.9961,2.6865,31.5586,31.5586,0,0,0,4.1118,4.0195,22.1057,22.1057,0,0,1,4.417,4.83,8.8548,8.8548,0,0,1,1.3013,4.7012,8.6321,8.6321,0,0,1-2.6406,6.458,9.2344,9.2344,0,0,1-6.7144,2.5674,17.2929,17.2929,0,0,1-6.1865-1.3955v-5.0928a16.1265,16.1265,0,0,0,5.8325,1.3965,3.8535,3.8535,0,0,0,2.7832-.9639,3.4236,3.4236,0,0,0,1.0034-2.59,5.3093,5.3093,0,0,0-1.3384-3.2129,30.3784,30.3784,0,0,0-4.6215-4.3418q-4.7161-3.8145-4.7154-8.7617a8.8356,8.8356,0,0,1,9.0157-9.0635,18.929,18.929,0,0,1,5.96,1.2451Z" transform="translate(-499.4883 -139.491)" fill="#fff"/>
    </g>
  </g>
  <g>
    <g style="isolation: isolate">
      <path d="M818.5113,285.8425q-.1128-10.1469,2.7344-13.146,2.8491-2.9993,8.4687-2.999,10.2231,0,10.2227,10.7129a28.9946,28.9946,0,0,1-1.3574,8.3179,81.3228,81.3228,0,0,1-4.752,11.4863l-6.0322,12.335h10.7461v5.8847H817.5308l8.4092-16.6a5.75,5.75,0,0,0,.6973-1.32q.4321-1.0181.622-1.3955a91.2208,91.2208,0,0,0,4.6221-10.5054,23.32,23.32,0,0,0,1.3789-7.5625,7.0949,7.0949,0,0,0-1.0605-4.1675,3.7207,3.7207,0,0,0-6.5557,1.2071,33.8643,33.8643,0,0,0-.7959,7.7519Z" transform="translate(-499.4883 -139.491)" fill="#fff"/>
      <path d="M854.0826,289.0867a12.528,12.528,0,0,1,2.9238-3.1309,5.7125,5.7125,0,0,1,3.3379-.9809,6.4122,6.4122,0,0,1,6.2627,3.9277q1.8471,3.9273,1.8477,12.8013,0,10.0085-1.9424,13.6518A6.4479,6.4479,0,0,1,860.4205,319a5.4826,5.4826,0,0,1-3.0557-.811,14.3933,14.3933,0,0,1-3.1309-3.3384h-.1513V333.033h-6.1865V285.4651h6.0361v3.6216Zm3.6972,24.5947q2.2251,0,3.168-2.5879t.9434-8.4067q0-6.7632-.8672-9.6158t-3.2442-2.8525a2.9949,2.9949,0,0,0-2.98,2.3613,28.2283,28.2283,0,0,0-.792,8.0284,56.3013,56.3013,0,0,0,.6221,10.0507Q855.252,313.6817,857.78,313.6814Z" transform="translate(-499.4883 -139.491)" fill="#fff"/>
    </g>
    <g style="isolation: isolate">
      <path d="M834.9673,400.9065a8.8663,8.8663,0,0,1,3.8887,3.7754q1.1557,2.3027,1.1572,7.7383,0,7.626-2.66,10.9658t-8.7705,3.3408q-5.7334,0-7.9024-3.0742t-2.2441-9.8262h6.11q.0762,7.28,4.3575,7.28a3.5776,3.5776,0,0,0,3.39-1.8867,12.9861,12.9861,0,0,0,1.043-5.9971q0-6.1479-1.6123-7.8086t-5.5557-1.6221v-5.7714q4.3155,0,5.7031-1.5284,1.3887-1.5263,1.3887-6.167a13.1865,13.1865,0,0,0-.8633-5.5644,3.3458,3.3458,0,0,0-5.8554.0195,14.4083,14.4083,0,0,0-.8252,5.47H819.53q.0748-7.1674,2.5088-10.0722t7.6006-2.9043q5.47,0,7.8838,3.0195t2.4141,9.8154q0,5.4756-1.1192,7.4756A8.397,8.397,0,0,1,834.9673,400.9065Z" transform="translate(-499.4883 -139.491)" fill="#fff"/>
      <path d="M854.0826,396.927a12.528,12.528,0,0,1,2.9238-3.1309,5.7092,5.7092,0,0,1,3.3379-.9814,6.4123,6.4123,0,0,1,6.2627,3.9277q1.8471,3.9273,1.8477,12.8018,0,10.0079-1.9424,13.6514a6.448,6.448,0,0,1-6.0918,3.6445,5.4857,5.4857,0,0,1-3.0557-.8106,14.3994,14.3994,0,0,1-3.1309-3.3388h-.1513v18.1826h-6.1865V393.3049h6.0361v3.6221Zm3.6972,24.5947q2.2251,0,3.168-2.5879t.9434-8.4072q0-6.7632-.8672-9.6152t-3.2442-2.8526a2.9949,2.9949,0,0,0-2.98,2.3614,28.2232,28.2232,0,0,0-.792,8.0283,56.3072,56.3072,0,0,0,.6221,10.0508Q855.252,421.5212,857.78,421.5217Z" transform="translate(-499.4883 -139.491)" fill="#fff"/>
    </g>
    <g style="isolation: isolate">
      <path d="M840.1636,520.761H837.523l-.0752.0752v13.2783h-6.3369V520.761H818.4361v-5.9981l13.0518-29.3852h5.96V514.99h2.7158Zm-8.9775-5.7715V497.7683l-.1514.0606-7.581,17.1606Z" transform="translate(-499.4883 -139.491)" fill="#fff"/>
      <path d="M854.0826,504.7668a12.5291,12.5291,0,0,1,2.9238-3.1308,5.709,5.709,0,0,1,3.3379-.981,6.4119,6.4119,0,0,1,6.2627,3.9273q1.8471,3.9272,1.8477,12.8017,0,10.0078-1.9424,13.6514a6.4479,6.4479,0,0,1-6.0918,3.6445,5.4865,5.4865,0,0,1-3.0557-.81,14.3982,14.3982,0,0,1-3.1309-3.3389h-.1513v18.1826h-6.1865V501.1448h6.0361v3.622Zm3.6972,24.5948q2.2251,0,3.168-2.5879t.9434-8.4072q0-6.7632-.8672-9.6153t-3.2442-2.8525a2.9949,2.9949,0,0,0-2.98,2.3613,28.2232,28.2232,0,0,0-.792,8.0283,56.3057,56.3057,0,0,0,.6221,10.0508Q855.252,529.3611,857.78,529.3616Z" transform="translate(-499.4883 -139.491)" fill="#fff"/>
    </g>
    <g style="isolation: isolate">
      <path d="M839.6353,599.7815H828.7222l-1.5468,10.9014q12.3471,1.1308,12.3466,14.5058a19.0423,19.0423,0,0,1-3.998,12.4151A12.4141,12.4141,0,0,1,825.49,642.52a16.2807,16.2807,0,0,1-7.8086-2.376l1.8535-5.6582a7.1492,7.1492,0,0,1,.9453.49,9.6316,9.6316,0,0,0,4.462,1.2823,6.8422,6.8422,0,0,0,5.7861-2.8233q2.1166-2.8227,2.1172-7.7939,0-4.5543-2.1748-6.9844a7.9719,7.9719,0,0,0-6.2617-2.4287,21.541,21.541,0,0,0-4.2.6035l3.5087-23.01h15.918Z" transform="translate(-499.4883 -139.491)" fill="#fff"/>
      <path d="M854.0826,612.6067a12.528,12.528,0,0,1,2.9238-3.1309,5.7158,5.7158,0,0,1,3.3379-.98,6.4122,6.4122,0,0,1,6.2627,3.9277q1.8471,3.9273,1.8477,12.8008,0,10.0079-1.9424,13.6523a6.4487,6.4487,0,0,1-6.0918,3.6436,5.4857,5.4857,0,0,1-3.0557-.8106,14.3994,14.3994,0,0,1-3.1309-3.3388h-.1513V656.553h-6.1865V608.9856h6.0361v3.6211Zm3.6972,24.5947q2.2251,0,3.168-2.5879t.9434-8.4072q0-6.7617-.8672-9.6152t-3.2442-2.8526a2.9949,2.9949,0,0,0-2.98,2.3614,28.2232,28.2232,0,0,0-.792,8.0283,56.3072,56.3072,0,0,0,.6221,10.0508Q855.252,637.2009,857.78,637.2014Z" transform="translate(-499.4883 -139.491)" fill="#fff"/>
    </g>
    <g style="isolation: isolate">
      <path d="M827.2906,720.5354a8.9226,8.9226,0,0,1,3.7637-1.0322,8.117,8.117,0,0,1,6.663,3.0224q2.4463,3.022,2.4463,11.7452,0,8.99-2.7158,12.539t-8.4873,3.55q-5.4317,0-7.9033-3.7t-2.4707-11.7441a57.1615,57.1615,0,0,1,.5469-8.6289,39.18,39.18,0,0,1,1.8867-7.2129,87.0263,87.0263,0,0,1,3.5429-8.2842l4.4834-9.1279h7.2315l-5.8291,11.7392ZM825.49,734.9885a23.8451,23.8451,0,0,0,.83,7.54,3.1232,3.1232,0,0,0,3.1689,2.2109q3.8849,0,3.8848-7.8994l-.0752-.6045v-.7939l.0752-1.625v-.7559q0-4.8-1.15-6.1983a3.3828,3.3828,0,0,0-2.6592-1.3994,3.3327,3.3327,0,0,0-3.2627,1.7207q-.8877,1.7182-.8867,5.877l.0752.68Z" transform="translate(-499.4883 -139.491)" fill="#fff"/>
      <path d="M854.0826,720.4465a12.5273,12.5273,0,0,1,2.9238-3.1308,5.7159,5.7159,0,0,1,3.3379-.9805,6.4123,6.4123,0,0,1,6.2627,3.9277q1.8471,3.9273,1.8477,12.8008,0,10.0078-1.9424,13.6524a6.4486,6.4486,0,0,1-6.0918,3.6435,5.4865,5.4865,0,0,1-3.0557-.8105,14.3982,14.3982,0,0,1-3.1309-3.3389h-.1513v18.1826h-6.1865V716.8254h6.0361v3.6211Zm3.6972,24.5948q2.2251,0,3.168-2.5879t.9434-8.4073q0-6.7617-.8672-9.6152t-3.2442-2.8525a2.9949,2.9949,0,0,0-2.98,2.3613,28.2232,28.2232,0,0,0-.792,8.0283,56.3057,56.3057,0,0,0,.6221,10.0508Q855.252,745.0407,857.78,745.0413Z" transform="translate(-499.4883 -139.491)" fill="#fff"/>
    </g>
    <g style="isolation: isolate">
      <path d="M841.6363,809.5764,827.7935,857.634l-6.3388-.0752,12.1435-42.0224H820.7v-5.96Z" transform="translate(-499.4883 -139.491)" fill="#fff"/>
      <path d="M854.0836,828.2864a12.528,12.528,0,0,1,2.9238-3.1309,5.7154,5.7154,0,0,1,3.3379-.9805,6.4124,6.4124,0,0,1,6.2627,3.9278q1.8471,3.9272,1.8476,12.8008,0,10.0077-1.9424,13.6523a6.4486,6.4486,0,0,1-6.0918,3.6436,5.4856,5.4856,0,0,1-3.0556-.8106,14.3982,14.3982,0,0,1-3.1309-3.3389h-.1513v18.1827H847.897V824.6653h6.0362v3.6211Zm3.6972,24.5947q2.2251,0,3.168-2.5879t.9434-8.4072q0-6.7617-.8672-9.6152t-3.2442-2.8526a2.9948,2.9948,0,0,0-2.98,2.3613,28.22,28.22,0,0,0-.792,8.0284,56.3173,56.3173,0,0,0,.622,10.0507Q855.2531,852.8807,857.7808,852.8811Z" transform="translate(-499.4883 -139.491)" fill="#fff"/>
    </g>
  </g>
  <g>
    <g style="isolation: isolate">
      <path d="M984.2613,400.9065a8.8663,8.8663,0,0,1,3.8887,3.7754q1.1558,2.3027,1.1572,7.7383,0,7.626-2.66,10.9658-2.6586,3.3412-8.7705,3.3408-5.7333,0-7.9023-3.0742t-2.2442-9.8262h6.11q.0762,7.28,4.3574,7.28a3.5779,3.5779,0,0,0,3.39-1.8867,12.9877,12.9877,0,0,0,1.0429-5.9971q0-6.1479-1.6123-7.8086t-5.5556-1.6221v-5.7714q4.3153,0,5.7031-1.5284,1.3887-1.5263,1.3887-6.167a13.1865,13.1865,0,0,0-.8633-5.5644,3.3459,3.3459,0,0,0-5.8555.0195,14.4083,14.4083,0,0,0-.8252,5.47h-6.1865q.0747-7.1674,2.5088-10.0722t7.6006-2.9043q5.47,0,7.8838,3.0195t2.414,9.8154q0,5.4756-1.1191,7.4756A8.397,8.397,0,0,1,984.2613,400.9065Z" transform="translate(-499.4883 -139.491)" fill="#fff7f7"/>
      <path d="M1010.8834,376.5188h6.1484v49.7559h-6.0732v-4.4141h-.15q-2.2266,4.8662-6.3369,4.8662a6.9112,6.9112,0,0,1-4.4327-1.6221,8.46,8.46,0,0,1-2.81-4.5263,41.2767,41.2767,0,0,1-.792-9.6944,62.6778,62.6778,0,0,1,.6787-11.0713,9.7519,9.7519,0,0,1,2.6025-5.206,6.7507,6.7507,0,0,1,4.9043-1.8672q3.8849,0,6.1114,4.4131h.15Zm.0752,32.7432a33.54,33.54,0,0,0-.7725-8.6573,3.0958,3.0958,0,0,0-3.1123-2.5459q-2.3394,0-3.207,2.6778a31.8838,31.8838,0,0,0-.8672,8.8642,35.8931,35.8931,0,0,0,.8115,9.1485q.81,2.7348,3.1113,2.7343,2.2632,0,3.15-2.8476A34.9894,34.9894,0,0,0,1010.9586,409.262Z" transform="translate(-499.4883 -139.491)" fill="#fff7f7"/>
    </g>
    <g style="isolation: isolate">
      <path d="M989.4576,520.761H986.817l-.0752.0752v13.2783h-6.337V520.761H967.73v-5.9981l13.0518-29.3852h5.96V514.99h2.7158ZM980.48,514.99V497.7683l-.1513.0606L972.7476,514.99Z" transform="translate(-499.4883 -139.491)" fill="#fff7f7"/>
      <path d="M1010.8834,484.3591h6.1484v49.7554h-6.0732V529.7h-.15q-2.2266,4.8663-6.3369,4.8663a6.9118,6.9118,0,0,1-4.4327-1.6221,8.4607,8.4607,0,0,1-2.81-4.5264,41.2757,41.2757,0,0,1-.792-9.6943,62.677,62.677,0,0,1,.6787-11.0713,9.7522,9.7522,0,0,1,2.6025-5.2061,6.75,6.75,0,0,1,4.9043-1.8667q3.8849,0,6.1114,4.4126h.15Zm.0752,32.7427a33.54,33.54,0,0,0-.7725-8.6572,3.0957,3.0957,0,0,0-3.1123-2.5459q-2.3394,0-3.207,2.6777a31.8847,31.8847,0,0,0-.8672,8.8643,35.8922,35.8922,0,0,0,.8115,9.1484q.81,2.735,3.1113,2.7344,2.2632,0,3.15-2.8477A34.9884,34.9884,0,0,0,1010.9586,517.1018Z" transform="translate(-499.4883 -139.491)" fill="#fff7f7"/>
    </g>
    <g style="isolation: isolate">
      <path d="M988.9293,599.7815H978.0162l-1.5469,10.9014q12.3471,1.1308,12.3467,14.5058a19.0418,19.0418,0,0,1-3.9981,12.4151,12.4139,12.4139,0,0,1-10.0341,4.916,16.2807,16.2807,0,0,1-7.8086-2.376l1.8535-5.6582a7.1617,7.1617,0,0,1,.9453.49,9.6315,9.6315,0,0,0,4.4619,1.2823,6.8422,6.8422,0,0,0,5.7861-2.8233q2.1168-2.8227,2.1172-7.7939,0-4.5543-2.1748-6.9844a7.9719,7.9719,0,0,0-6.2617-2.4287,21.541,21.541,0,0,0-4.2.6035l3.5088-23.01h15.918Z" transform="translate(-499.4883 -139.491)" fill="#fff7f7"/>
      <path d="M1010.8834,592.2h6.1484v49.7548h-6.0732v-4.413h-.15q-2.2266,4.8661-6.3369,4.8662a6.9168,6.9168,0,0,1-4.4327-1.6221,8.4594,8.4594,0,0,1-2.81-4.5273,41.2709,41.2709,0,0,1-.792-9.6944,62.677,62.677,0,0,1,.6787-11.0713,9.7515,9.7515,0,0,1,2.6025-5.206,6.7544,6.7544,0,0,1,4.9043-1.8672q3.8849,0,6.1114,4.4141h.15Zm.0752,32.7422a33.54,33.54,0,0,0-.7725-8.6573,3.0958,3.0958,0,0,0-3.1123-2.5459q-2.3394,0-3.207,2.6778a31.8922,31.8922,0,0,0-.8672,8.8652,35.8893,35.8893,0,0,0,.8115,9.1475q.81,2.7348,3.1113,2.7343,2.2632,0,3.15-2.8476A34.9894,34.9894,0,0,0,1010.9586,624.9417Z" transform="translate(-499.4883 -139.491)" fill="#fff7f7"/>
    </g>
    <g style="isolation: isolate">
      <path d="M976.5845,720.5354a8.9226,8.9226,0,0,1,3.7637-1.0322,8.1171,8.1171,0,0,1,6.6631,3.0224q2.4464,3.022,2.4463,11.7452,0,8.99-2.7158,12.539t-8.4873,3.55q-5.4316,0-7.9034-3.7T967.88,734.9153a57.1615,57.1615,0,0,1,.5469-8.6289,39.1961,39.1961,0,0,1,1.8867-7.2129,87.0291,87.0291,0,0,1,3.543-8.2842l4.4834-9.1279h7.2314l-5.8291,11.7392Zm-1.8007,14.4531a23.8458,23.8458,0,0,0,.83,7.54,3.1234,3.1234,0,0,0,3.169,2.2109q3.8847,0,3.8847-7.8994l-.0752-.6045v-.7939l.0752-1.625v-.7559q0-4.8-1.15-6.1983a3.3828,3.3828,0,0,0-2.6592-1.3994,3.3326,3.3326,0,0,0-3.2627,1.7207q-.8877,1.7182-.8867,5.877l.0752.68Z" transform="translate(-499.4883 -139.491)" fill="#fff7f7"/>
      <path d="M1010.8834,700.0393h6.1484v49.7549h-6.0732v-4.4131h-.15q-2.2266,4.8661-6.3369,4.8662a6.9168,6.9168,0,0,1-4.4327-1.6221,8.4591,8.4591,0,0,1-2.81-4.5273,41.27,41.27,0,0,1-.792-9.6943,62.677,62.677,0,0,1,.6787-11.0713,9.7518,9.7518,0,0,1,2.6025-5.2061,6.7548,6.7548,0,0,1,4.9043-1.8672q3.8849,0,6.1114,4.4141h.15Zm.0752,32.7422a33.54,33.54,0,0,0-.7725-8.6572,3.0957,3.0957,0,0,0-3.1123-2.5459q-2.3394,0-3.207,2.6777a31.8922,31.8922,0,0,0-.8672,8.8652,35.8887,35.8887,0,0,0,.8115,9.1475q.81,2.7348,3.1113,2.7344,2.2632,0,3.15-2.8477A34.9884,34.9884,0,0,0,1010.9586,732.7815Z" transform="translate(-499.4883 -139.491)" fill="#fff7f7"/>
    </g>
  </g>
  <g>
    <g style="isolation: isolate">
      <path d="M1139.1089,520.761h-2.6406l-.0752.0752v13.2783h-6.3369V520.761h-12.6748v-5.9981l13.0518-29.3852h5.96V514.99h2.7158Zm-8.9775-5.7715V497.7683l-.1514.0606-7.581,17.1606Z" transform="translate(-499.4883 -139.491)" fill="#fff2f2"/>
      <path d="M1158.649,490.3948a3.4251,3.4251,0,0,0-2.15-.4527q-3.0175,0-3.0176,4.6021v6.6006h5.0928v4.6777h-5.0928v28.292H1147.37v-28.292H1144.05v-4.6777h3.3193v-7.0532q0-9.6562,7.3564-9.6568a15.0243,15.0243,0,0,1,3.9229.4527Z" transform="translate(-499.4883 -139.491)" fill="#fff2f2"/>
    </g>
    <g style="isolation: isolate">
      <path d="M1138.5806,599.7815h-10.9131l-1.5468,10.9014q12.3471,1.1308,12.3466,14.5058a19.0423,19.0423,0,0,1-3.998,12.4151,12.4139,12.4139,0,0,1-10.0342,4.916,16.281,16.281,0,0,1-7.8086-2.376l1.8535-5.6582a7.155,7.155,0,0,1,.9454.49,9.6309,9.6309,0,0,0,4.4619,1.2823,6.8422,6.8422,0,0,0,5.7861-2.8233q2.1167-2.8227,2.1172-7.7939,0-4.5543-2.1748-6.9844a7.9719,7.9719,0,0,0-6.2617-2.4287,21.541,21.541,0,0,0-4.2.6035l3.5088-23.01h15.9179Z" transform="translate(-499.4883 -139.491)" fill="#fff2f2"/>
      <path d="M1158.649,598.2346a3.4252,3.4252,0,0,0-2.15-.4531q-3.0175,0-3.0176,4.6025v6.6016h5.0928v4.6777h-5.0928v28.291H1147.37v-28.291H1144.05v-4.6777h3.3193v-7.0547q0-9.6562,7.3564-9.6562a15.0261,15.0261,0,0,1,3.9229.4521Z" transform="translate(-499.4883 -139.491)" fill="#fff2f2"/>
    </g>
  </g>
  <g>
    <path d="M513.9727,210.5945h-3.164L503.1915,190.1l-.0938.01v20.4844h-3.6094V180.7351h3.211l7.6406,20.49.0938.0176V180.7351h3.539Z" transform="translate(-499.4883 -139.491)"/>
    <path d="M554.0743,191.0476h-25.5V187.93h25.5Zm0,10.9453h-25.5v-3.07h25.5Z" transform="translate(-499.4883 -139.491)"/>
    <path d="M577.2071,210.5945h-3.8906V183.8992h-2.625v-3.211h6.5156Z" transform="translate(-499.4883 -139.491)"/>
  </g>
  <g>
    <path d="M513.9727,318.4343h-3.164L503.1915,297.94l-.0938.01v20.4843h-3.6094V288.575h3.211l7.6406,20.49.0938.0176V288.575h3.539Z" transform="translate(-499.4883 -139.491)"/>
    <path d="M554.0743,298.8875h-25.5V295.77h25.5Zm0,10.9453h-25.5v-3.07h25.5Z" transform="translate(-499.4883 -139.491)"/>
    <path d="M568.4649,298.1843q-.07-6.3047,1.6992-8.1679a6.9241,6.9241,0,0,1,5.2617-1.8633q6.3516,0,6.3516,6.6562a18.0152,18.0152,0,0,1-.8437,5.168,50.5337,50.5337,0,0,1-2.9522,7.1367l-3.7485,7.6641H580.91v3.6562H567.8555l5.2246-10.3135a3.5491,3.5491,0,0,0,.4336-.82q.2688-.6327.3868-.8672a56.72,56.72,0,0,0,2.8715-6.5273,14.4982,14.4982,0,0,0,.857-4.6987,4.408,4.408,0,0,0-.6592-2.5894,2.3119,2.3119,0,0,0-4.0733.75,21.0352,21.0352,0,0,0-.4941,4.8164Z" transform="translate(-499.4883 -139.491)"/>
  </g>
  <g>
    <path d="M513.9727,426.2747h-3.164l-7.6172-20.4942-.0938.01v20.4844h-3.6094V396.4153h3.211l7.6406,20.49.0938.0176V396.4153h3.539Z" transform="translate(-499.4883 -139.491)"/>
    <path d="M554.0743,406.7278h-25.5v-3.1172h25.5Zm0,10.9453h-25.5v-3.07h25.5Z" transform="translate(-499.4883 -139.491)"/>
    <path d="M578.69,410.5129a5.515,5.515,0,0,1,2.416,2.3457,11.556,11.556,0,0,1,.7188,4.8077q0,4.7387-1.6524,6.8139t-5.4492,2.0757q-3.5625,0-4.91-1.91T568.418,418.54h3.7969q.047,4.5234,2.707,4.5234a2.2239,2.2239,0,0,0,2.1065-1.1719,8.0706,8.0706,0,0,0,.6474-3.7265q0-3.82-1.0014-4.8516a4.6376,4.6376,0,0,0-3.4517-1.0078V408.72q2.6807,0,3.5435-.9492t.8628-3.8321a8.1889,8.1889,0,0,0-.5367-3.457,2.0783,2.0783,0,0,0-3.6376.0117,8.9567,8.9567,0,0,0-.5132,3.3984h-3.8438q.0469-4.4531,1.5586-6.2578a5.818,5.818,0,0,1,4.7227-1.8047q3.3984,0,4.8984,1.8765t1.5,6.0986a10.5768,10.5768,0,0,1-.6953,4.6446A5.2184,5.2184,0,0,1,578.69,410.5129Z" transform="translate(-499.4883 -139.491)"/>
  </g>
  <g>
    <path d="M513.9727,534.1145h-3.164L503.1915,513.62l-.0938.01v20.4844h-3.6094V504.2551h3.211l7.6406,20.49.0938.0175V504.2551h3.539Z" transform="translate(-499.4883 -139.491)"/>
    <path d="M554.0743,514.5676h-25.5V511.45h25.5Zm0,10.9453h-25.5v-3.07h25.5Z" transform="translate(-499.4883 -139.491)"/>
    <path d="M581.918,525.8176h-1.6406l-.0469.0469v8.25H576.293v-8.2969h-7.875v-3.7265l8.1094-18.2578h3.7031v18.3984h1.6875Zm-5.5781-3.5859v-10.7l-.0937.0381-4.7105,10.6621Z" transform="translate(-499.4883 -139.491)"/>
  </g>
  <g>
    <path d="M513.9727,641.9534h-3.164l-7.6172-20.4942-.0938.01v20.4844h-3.6094V612.094h3.211l7.6406,20.49.0938.0176V612.094h3.539Z" transform="translate(-499.4883 -139.491)"/>
    <path d="M554.0743,622.4065h-25.5v-3.1172h25.5Zm0,10.9453h-25.5v-3.07h25.5Z" transform="translate(-499.4883 -139.491)"/>
    <path d="M581.59,615.75h-6.7808l-.9614,6.7735q7.6722.7031,7.6719,9.0137a11.8257,11.8257,0,0,1-2.4844,7.7128,7.7118,7.7118,0,0,1-6.2344,3.0547,10.1149,10.1149,0,0,1-4.8515-1.4765l1.1513-3.5157a4.4107,4.4107,0,0,1,.5874.3047,5.9891,5.9891,0,0,0,2.7725.7969,4.25,4.25,0,0,0,3.5947-1.7539,7.9086,7.9086,0,0,0,1.316-4.8418,6.2967,6.2967,0,0,0-1.3516-4.34,4.9534,4.9534,0,0,0-3.8906-1.51,13.3334,13.3334,0,0,0-2.6094.375l2.18-14.2969H581.59Z" transform="translate(-499.4883 -139.491)"/>
  </g>
  <g>
    <path d="M513.9727,749.7942h-3.164L503.1915,729.3l-.0938.01v20.4844h-3.6094V719.9348h3.211l7.6406,20.49.0938.0176V719.9348h3.539Z" transform="translate(-499.4883 -139.491)"/>
    <path d="M554.0743,730.2473h-25.5V727.13h25.5Zm0,10.9453h-25.5v-3.07h25.5Z" transform="translate(-499.4883 -139.491)"/>
    <path d="M573.92,731.6155a5.5386,5.5386,0,0,1,2.3389-.6416,5.0422,5.0422,0,0,1,4.14,1.8779q1.52,1.878,1.52,7.2979,0,5.5839-1.6875,7.791a6.2158,6.2158,0,0,1-5.2734,2.2051,5.4755,5.4755,0,0,1-4.91-2.2989q-1.5351-2.3-1.5351-7.2969a35.4821,35.4821,0,0,1,.34-5.3613,24.388,24.388,0,0,1,1.1719-4.4814,54.104,54.104,0,0,1,2.2017-5.1475l2.7856-5.6719h4.4932l-3.6221,7.294Zm-1.1187,8.98a14.8267,14.8267,0,0,0,.5157,4.6855,1.9408,1.9408,0,0,0,1.9687,1.3731q2.4141,0,2.4141-4.9082l-.0469-.375v-.4932l.0469-1.01v-.47q0-2.9824-.7149-3.8516a2.101,2.101,0,0,0-1.6523-.8691,2.072,2.072,0,0,0-2.0274,1.0684,8.6333,8.6333,0,0,0-.5507,3.6523l.0468.4219Z" transform="translate(-499.4883 -139.491)"/>
  </g>
  <g>
    <path d="M513.9727,857.634h-3.164L503.1915,837.14l-.0938.01V857.634h-3.6094V827.7747h3.211l7.6406,20.49.0938.0176V827.7747h3.539Z" transform="translate(-499.4883 -139.491)"/>
    <path d="M554.0743,838.0872h-25.5V834.97h25.5Zm0,10.9453h-25.5v-3.07h25.5Z" transform="translate(-499.4883 -139.491)"/>
    <path d="M582.8321,827.7747l-8.6006,29.8593-3.9385-.0468,7.545-26.1094h-8.0137v-3.7031Z" transform="translate(-499.4883 -139.491)"/>
  </g>
</svg>
