<?xml version="1.0" encoding="UTF-8" standalone="no"?>
<!-- Created with Inkscape (http://www.inkscape.org/) -->

<svg
   width="164.59872mm"
   height="158.75002mm"
   viewBox="0 0 164.59873 158.75002"
   version="1.1"
   id="svg1"
   xml:space="preserve"
   xmlns="http://www.w3.org/2000/svg"
   xmlns:svg="http://www.w3.org/2000/svg"><defs
     id="defs1"><clipPath
       clipPathUnits="userSpaceOnUse"
       id="clipPath414-8"><path
         d="M 363,132.857 H 589.414 V 352.25 H 363 Z"
         transform="translate(-410.30161,-325.00741)"
         id="path414-8" /></clipPath><clipPath
       clipPathUnits="userSpaceOnUse"
       id="clipPath416-2"><path
         d="M 363,132.857 H 589.414 V 352.25 H 363 Z"
         transform="translate(-418.90221,-315.44891)"
         id="path416-7" /></clipPath><clipPath
       clipPathUnits="userSpaceOnUse"
       id="clipPath418-7"><path
         d="M 363,132.857 H 589.414 V 352.25 H 363 Z"
         transform="translate(-443.58481,-297.72421)"
         id="path418-1" /></clipPath><clipPath
       clipPathUnits="userSpaceOnUse"
       id="clipPath420-2"><path
         d="M 363,132.857 H 589.414 V 352.25 H 363 Z"
         transform="translate(-478.92761,-266.77011)"
         id="path420-6" /></clipPath><clipPath
       clipPathUnits="userSpaceOnUse"
       id="clipPath422-0"><path
         d="M 363,132.857 H 589.414 V 352.25 H 363 Z"
         transform="translate(-502.71472,-250.63141)"
         id="path422-4" /></clipPath><clipPath
       clipPathUnits="userSpaceOnUse"
       id="clipPath424-9"><path
         d="M 363,132.857 H 589.414 V 352.25 H 363 Z"
         transform="translate(-562.30261,-204.61191)"
         id="path424-4" /></clipPath><clipPath
       clipPathUnits="userSpaceOnUse"
       id="clipPath426-6"><path
         d="M 363,132.857 H 589.414 V 352.25 H 363 Z"
         transform="translate(-396.68051,-336.11481)"
         id="path426-0" /></clipPath><clipPath
       clipPathUnits="userSpaceOnUse"
       id="clipPath428-3"><path
         d="M 363,132.857 H 589.414 V 352.25 H 363 Z"
         transform="translate(-396.68051,-336.11481)"
         id="path428-6" /></clipPath><clipPath
       clipPathUnits="userSpaceOnUse"
       id="clipPath430-2"><path
         d="M 363,132.857 H 589.414 V 352.25 H 363 Z"
         transform="translate(-586.11521,-345.38171)"
         id="path430-4" /></clipPath></defs><g
     id="group-MC1"
     transform="matrix(0.56028898,0,0,0.56028898,-273.63332,-382.8853)"><path
       id="path392"
       d="M 0,0 V -182.399"
       style="fill:none;stroke:#bdbcbc;stroke-width:0.4;stroke-linecap:butt;stroke-linejoin:miter;stroke-miterlimit:4;stroke-dasharray:none;stroke-opacity:1"
       transform="matrix(1.3333333,0,0,-1.3333333,546.84093,687.49147)" /><path
       id="path393"
       d="M 0,0 V -182.399"
       style="fill:none;stroke:#bdbcbc;stroke-width:0.4;stroke-linecap:butt;stroke-linejoin:miter;stroke-miterlimit:4;stroke-dasharray:none;stroke-opacity:1"
       transform="matrix(1.3333333,0,0,-1.3333333,564.87613,687.49147)" /><path
       id="path394"
       d="M 0,0 V -182.399"
       style="fill:none;stroke:#bdbcbc;stroke-width:0.4;stroke-linecap:butt;stroke-linejoin:miter;stroke-miterlimit:4;stroke-dasharray:none;stroke-opacity:1"
       transform="matrix(1.3333333,0,0,-1.3333333,582.91133,687.49147)" /><path
       id="path395"
       d="M 0,0 V -182.399"
       style="fill:none;stroke:#bdbcbc;stroke-width:0.4;stroke-linecap:butt;stroke-linejoin:miter;stroke-miterlimit:4;stroke-dasharray:none;stroke-opacity:1"
       transform="matrix(1.3333333,0,0,-1.3333333,600.94507,687.49147)" /><path
       id="path396"
       d="M 0,0 V -182.399"
       style="fill:none;stroke:#bdbcbc;stroke-width:0.4;stroke-linecap:butt;stroke-linejoin:miter;stroke-miterlimit:4;stroke-dasharray:none;stroke-opacity:1"
       transform="matrix(1.3333333,0,0,-1.3333333,618.98293,687.49147)" /><path
       id="path397"
       d="M 0,0 V -182.399"
       style="fill:none;stroke:#bdbcbc;stroke-width:0.4;stroke-linecap:butt;stroke-linejoin:miter;stroke-miterlimit:4;stroke-dasharray:none;stroke-opacity:1"
       transform="matrix(1.3333333,0,0,-1.3333333,637.018,687.49147)" /><path
       id="path398"
       d="M 0,0 V -182.399"
       style="fill:none;stroke:#bdbcbc;stroke-width:0.4;stroke-linecap:butt;stroke-linejoin:miter;stroke-miterlimit:4;stroke-dasharray:none;stroke-opacity:1"
       transform="matrix(1.3333333,0,0,-1.3333333,655.05187,687.49147)" /><path
       id="path399"
       d="M 0,0 V -182.399"
       style="fill:none;stroke:#bdbcbc;stroke-width:0.4;stroke-linecap:butt;stroke-linejoin:miter;stroke-miterlimit:4;stroke-dasharray:none;stroke-opacity:1"
       transform="matrix(1.3333333,0,0,-1.3333333,673.08573,687.49147)" /><path
       id="path400"
       d="M 0,0 V -182.399"
       style="fill:none;stroke:#bdbcbc;stroke-width:0.4;stroke-linecap:butt;stroke-linejoin:miter;stroke-miterlimit:4;stroke-dasharray:none;stroke-opacity:1"
       transform="matrix(1.3333333,0,0,-1.3333333,691.12093,687.49147)" /><path
       id="path401"
       d="M 0,0 V -182.399"
       style="fill:none;stroke:#bdbcbc;stroke-width:0.4;stroke-linecap:butt;stroke-linejoin:miter;stroke-miterlimit:4;stroke-dasharray:none;stroke-opacity:1"
       transform="matrix(1.3333333,0,0,-1.3333333,709.15867,687.49147)" /><path
       id="path402"
       d="M 0,0 V -182.399"
       style="fill:none;stroke:#bdbcbc;stroke-width:0.4;stroke-linecap:butt;stroke-linejoin:miter;stroke-miterlimit:4;stroke-dasharray:none;stroke-opacity:1"
       transform="matrix(1.3333333,0,0,-1.3333333,727.19253,687.49147)" /><path
       id="path403"
       d="M 0,0 V -182.399"
       style="fill:none;stroke:#bdbcbc;stroke-width:0.4;stroke-linecap:butt;stroke-linejoin:miter;stroke-miterlimit:4;stroke-dasharray:none;stroke-opacity:1"
       transform="matrix(1.3333333,0,0,-1.3333333,745.22773,687.49147)" /><path
       id="path404"
       d="M 0,0 V -182.399"
       style="fill:none;stroke:#bdbcbc;stroke-width:0.4;stroke-linecap:butt;stroke-linejoin:miter;stroke-miterlimit:4;stroke-dasharray:none;stroke-opacity:1"
       transform="matrix(1.3333333,0,0,-1.3333333,763.26027,687.49147)" /><path
       id="path405"
       d="M 0,0 H 189.289"
       style="fill:none;stroke:#bdbcbc;stroke-width:0.4;stroke-linecap:butt;stroke-linejoin:miter;stroke-miterlimit:4;stroke-dasharray:none;stroke-opacity:1"
       transform="matrix(1.3333333,0,0,-1.3333333,529.07013,923.34427)" /><path
       id="path406"
       d="M 0,0 H 189.289"
       style="fill:none;stroke:#bdbcbc;stroke-width:0.4;stroke-linecap:butt;stroke-linejoin:miter;stroke-miterlimit:4;stroke-dasharray:none;stroke-opacity:1"
       transform="matrix(1.3333333,0,0,-1.3333333,529.07013,893.84947)" /><path
       id="path407"
       d="M 0,0 H 189.289"
       style="fill:none;stroke:#bdbcbc;stroke-width:0.4;stroke-linecap:butt;stroke-linejoin:miter;stroke-miterlimit:4;stroke-dasharray:none;stroke-opacity:1"
       transform="matrix(1.3333333,0,0,-1.3333333,529.07013,864.35467)" /><path
       id="path408"
       d="M 0,0 H 189.289"
       style="fill:none;stroke:#bdbcbc;stroke-width:0.4;stroke-linecap:butt;stroke-linejoin:miter;stroke-miterlimit:4;stroke-dasharray:none;stroke-opacity:1"
       transform="matrix(1.3333333,0,0,-1.3333333,529.07013,834.85987)" /><path
       id="path409"
       d="M 0,0 H 189.289"
       style="fill:none;stroke:#bdbcbc;stroke-width:0.4;stroke-linecap:butt;stroke-linejoin:miter;stroke-miterlimit:4;stroke-dasharray:none;stroke-opacity:1"
       transform="matrix(1.3333333,0,0,-1.3333333,529.07013,805.36627)" /><path
       id="path410"
       d="M 0,0 H 189.289"
       style="fill:none;stroke:#bdbcbc;stroke-width:0.4;stroke-linecap:butt;stroke-linejoin:miter;stroke-miterlimit:4;stroke-dasharray:none;stroke-opacity:1"
       transform="matrix(1.3333333,0,0,-1.3333333,529.07013,775.8716)" /><path
       id="path411"
       d="M 0,0 H 189.289"
       style="fill:none;stroke:#bdbcbc;stroke-width:0.4;stroke-linecap:butt;stroke-linejoin:miter;stroke-miterlimit:4;stroke-dasharray:none;stroke-opacity:1"
       transform="matrix(1.3333333,0,0,-1.3333333,529.07013,746.37813)" /><path
       id="path412"
       d="M 0,0 H 189.289"
       style="fill:none;stroke:#bdbcbc;stroke-width:0.4;stroke-linecap:butt;stroke-linejoin:miter;stroke-miterlimit:4;stroke-dasharray:none;stroke-opacity:1"
       transform="matrix(1.3333333,0,0,-1.3333333,529.07013,716.88333)" /><path
       id="path413"
       d="M 0,0 C 1.061,0 1.919,0.859 1.919,1.92 1.919,2.98 1.061,3.84 0,3.84 -1.061,3.84 -1.92,2.98 -1.92,1.92 -1.92,0.859 -1.061,0 0,0"
       style="fill:#e22739;fill-opacity:1;fill-rule:nonzero;stroke:#e1182b;stroke-width:0.5;stroke-linecap:butt;stroke-linejoin:miter;stroke-miterlimit:4;stroke-dasharray:none;stroke-opacity:1"
       transform="matrix(1.3333333,0,0,-1.3333333,547.0688,714.6568)"
       clip-path="url(#clipPath414-8)" /><path
       id="path415"
       d="m 0,0 c 1.061,0 1.92,0.858 1.92,1.919 0,1.06 -0.859,1.92 -1.92,1.92 -1.06,0 -1.92,-0.86 -1.92,-1.92 C -1.92,0.858 -1.06,0 0,0"
       style="fill:#e22739;fill-opacity:1;fill-rule:nonzero;stroke:#e1182b;stroke-width:0.5;stroke-linecap:butt;stroke-linejoin:miter;stroke-miterlimit:4;stroke-dasharray:none;stroke-opacity:1"
       transform="matrix(1.3333333,0,0,-1.3333333,558.53627,727.40147)"
       clip-path="url(#clipPath416-2)" /><path
       id="path417"
       d="M 0,0 C 1.06,0 1.919,0.859 1.919,1.92 1.919,2.979 1.06,3.839 0,3.839 -1.061,3.839 -1.92,2.979 -1.92,1.92 -1.92,0.859 -1.061,0 0,0"
       style="fill:#e22739;fill-opacity:1;fill-rule:nonzero;stroke:#e1182b;stroke-width:0.5;stroke-linecap:butt;stroke-linejoin:miter;stroke-miterlimit:4;stroke-dasharray:none;stroke-opacity:1"
       transform="matrix(1.3333333,0,0,-1.3333333,591.4464,751.0344)"
       clip-path="url(#clipPath418-7)" /><path
       id="path419"
       d="m 0,0 c 1.061,0 1.92,0.859 1.92,1.919 0,1.06 -0.859,1.92 -1.92,1.92 -1.06,0 -1.92,-0.86 -1.92,-1.92 C -1.92,0.859 -1.06,0 0,0"
       style="fill:#e22739;fill-opacity:1;fill-rule:nonzero;stroke:#e1182b;stroke-width:0.5;stroke-linecap:butt;stroke-linejoin:miter;stroke-miterlimit:4;stroke-dasharray:none;stroke-opacity:1"
       transform="matrix(1.3333333,0,0,-1.3333333,638.57013,792.30653)"
       clip-path="url(#clipPath420-2)" /><path
       id="path421"
       d="M 0,0 C 1.06,0 1.918,0.859 1.918,1.92 1.918,2.979 1.06,3.84 0,3.84 -1.062,3.84 -1.921,2.979 -1.921,1.92 -1.921,0.859 -1.062,0 0,0"
       style="fill:#e22739;fill-opacity:1;fill-rule:nonzero;stroke:#e1182b;stroke-width:0.5;stroke-linecap:butt;stroke-linejoin:miter;stroke-miterlimit:4;stroke-dasharray:none;stroke-opacity:1"
       transform="matrix(1.3333333,0,0,-1.3333333,670.28627,813.8248)"
       clip-path="url(#clipPath422-0)" /><path
       id="path423"
       d="M 0,0 C 1.061,0 1.92,0.86 1.92,1.92 1.92,2.98 1.061,3.839 0,3.839 -1.061,3.839 -1.92,2.98 -1.92,1.92 -1.92,0.86 -1.061,0 0,0"
       style="fill:#e22739;fill-opacity:1;fill-rule:nonzero;stroke:#e1182b;stroke-width:0.5;stroke-linecap:butt;stroke-linejoin:miter;stroke-miterlimit:4;stroke-dasharray:none;stroke-opacity:1"
       transform="matrix(1.3333333,0,0,-1.3333333,749.7368,875.18413)"
       clip-path="url(#clipPath424-9)" /><path
       id="path425"
       d="M 0,0 189.233,-148.772"
       style="fill:none;stroke:#ffffff;stroke-width:0.75;stroke-linecap:butt;stroke-linejoin:miter;stroke-miterlimit:4;stroke-dasharray:none;stroke-opacity:1"
       transform="matrix(1.3333333,0,0,-1.3333333,528.90733,699.84693)"
       clip-path="url(#clipPath426-6)" /><path
       id="path427"
       d="M 0,0 189.233,-148.772"
       style="fill:none;stroke:#e1182b;stroke-width:1.25;stroke-linecap:butt;stroke-linejoin:miter;stroke-miterlimit:4;stroke-dasharray:none;stroke-opacity:1"
       transform="matrix(1.3333333,0,0,-1.3333333,528.90733,699.84693)"
       clip-path="url(#clipPath428-3)" /><path
       id="path429"
       d="M 0,0 H -189.294 V -182.304 H 0 Z"
       style="fill:none;stroke:#656263;stroke-width:1;stroke-linecap:butt;stroke-linejoin:miter;stroke-miterlimit:4;stroke-dasharray:none;stroke-opacity:1"
       transform="matrix(1.3333333,0,0,-1.3333333,781.48693,687.49107)"
       clip-path="url(#clipPath430-2)" /><g
       id="g430"
       aria-label="0.00280.00300.00320.0034&#10;3&#10;4&#10;ln P&#10;5&#10;6&#10;7&#10;l/T  (l/K)"
       transform="matrix(1.3333333,0,0,1.3333333,512.35653,945.32733)"><path
         id="path431"
         d="m 2.1437328,0.176375 c 1.8632813,0 2.0390625,-2.1679687 2.0390625,-3.5742187 0,-1.6640625 -0.4921875,-2.8007813 -1.7929687,-2.8007813 -1.86328129,0 -2.13281254,1.8632813 -2.13281254,3.3164063 0,2.1445312 0.64453125,3.0117187 1.88671874,3.0585937 z m 0.082031,-6.0585937 c 1.0078125,0 1.2070312,1.3476562 1.2070312,3.0703125 0,1.3007812 -0.1171875,2.67187495 -1.171875,2.67187495 -0.9960937,0 -1.2421875,-1.24218745 -1.2421875,-2.98828125 0,-1.3828125 0.09375,-2.7539062 1.1484375,-2.7539062 z m 3.3867187,5.92968745 c 0.2929688,0 0.5390625,-0.2578125 0.5390625,-0.52734375 0,-0.26953125 -0.2578125,-0.515625 -0.5390625,-0.515625 -0.2695312,0 -0.515625,0.24609375 -0.515625,0.515625 0,0.26953125 0.234375,0.52734375 0.515625,0.52734375 z m 3.28125,0.12890625 c 1.8632815,0 2.0390625,-2.1679687 2.0390625,-3.5742187 0,-1.6640625 -0.492187,-2.8007813 -1.7929687,-2.8007813 -1.8632813,0 -2.1328125,1.8632813 -2.1328125,3.3164063 0,2.1445312 0.6445312,3.0117187 1.8867187,3.0585937 z m 0.082031,-6.0585937 c 1.0078125,0 1.2070305,1.3476562 1.2070305,3.0703125 0,1.3007812 -0.117187,2.67187495 -1.1718743,2.67187495 -0.9960937,0 -1.2421875,-1.24218745 -1.2421875,-2.98828125 0,-1.3828125 0.09375,-2.7539062 1.1484375,-2.7539062 z M 13.393733,0.176375 c 1.863281,0 2.039062,-2.1679687 2.039062,-3.5742187 0,-1.6640625 -0.492187,-2.8007813 -1.792968,-2.8007813 -1.863282,0 -2.132813,1.8632813 -2.132813,3.3164063 0,2.1445312 0.644531,3.0117187 1.886719,3.0585937 z m 0.08203,-6.0585937 c 1.007813,0 1.207031,1.3476562 1.207031,3.0703125 0,1.3007812 -0.117187,2.67187495 -1.171875,2.67187495 -0.996093,0 -1.242187,-1.24218745 -1.242187,-2.98828125 0,-1.3828125 0.09375,-2.7539062 1.148437,-2.7539062 z m 2.414063,5.67187495 v 0.234375 c 0.667968,0 1.335937,-0.0234375 2.015625,-0.0234375 0.691406,0 1.359375,0.0234375 2.050781,0.0234375 0,-0.12890625 -0.01172,-0.26953125 -0.01172,-0.3984375 0,-0.140625 0.01172,-0.26953125 0.01172,-0.41015625 -1.03125,0.0351563 -2.074219,0.09375 -3.105469,0.09375 l 1.628906,-1.734375 c 0.785157,-0.8203125 1.148438,-1.3476562 1.148438,-2.0976562 0,-0.8789063 -0.527344,-1.6757813 -1.839844,-1.6757813 -0.585937,0 -1.136719,0.1757813 -1.535156,0.6328125 -0.05859,0.3984375 -0.09375,0.8085938 -0.152344,1.21875 h 0.257813 l 0.117187,-0.4101562 c 0.175781,-0.609375 0.539063,-0.75 1.136719,-0.75 0.75,0 1.207031,0.5390625 1.207031,1.265625 0,0.5625 -0.246094,1.1835937 -1.394531,2.4023437 z M 22.581233,-6.198625 c -0.996094,0 -1.851563,0.5976563 -1.851563,1.6640625 0,0.65625 0.410157,1.0429688 1.03125,1.4296875 -0.679687,0.2695313 -1.242187,0.8789063 -1.242187,1.6523438 0,1.03124995 0.796875,1.6289062 1.78125,1.6289062 1.113281,0 2.121094,-0.890625 2.121094,-2.0273437 0,-0.890625 -0.621094,-1.2539063 -1.359375,-1.5820313 0.515625,-0.3398437 1.113281,-0.7734375 1.113281,-1.453125 0,-0.9140625 -0.773438,-1.3125 -1.59375,-1.3125 z m 0.222656,3.5390625 c 0.363281,0.1640625 0.914063,0.5507813 0.914063,1.1835938 0,0.6679687 -0.515625,1.3476562 -1.242188,1.3476562 -0.808594,0 -1.3125,-0.515625 -1.3125,-1.3359375 0,-0.6796875 0.269531,-1.1484375 0.925781,-1.5117187 z M 22.253108,-3.808 c -0.398438,-0.1992187 -0.855469,-0.5507812 -0.855469,-1.0546875 0,-0.6679687 0.433594,-1.03125 1.089844,-1.03125 0.667969,0 1.078125,0.4570313 1.078125,1.1015625 0,0.5625 -0.351563,0.9492188 -0.808594,1.2304688 z m 34.511719,3.984375 c 1.863281,0 2.039062,-2.1679687 2.039062,-3.5742187 0,-1.6640625 -0.492187,-2.8007813 -1.792969,-2.8007813 -1.863281,0 -2.132812,1.8632813 -2.132812,3.3164063 0,2.1445312 0.644531,3.0117187 1.886719,3.0585937 z m 0.08203,-6.0585937 c 1.007812,0 1.207031,1.3476562 1.207031,3.0703125 0,1.3007812 -0.117187,2.67187495 -1.171875,2.67187495 -0.996094,0 -1.242187,-1.24218745 -1.242187,-2.98828125 0,-1.3828125 0.09375,-2.7539062 1.148437,-2.7539062 z m 3.386719,5.92968745 c 0.292968,0 0.539062,-0.2578125 0.539062,-0.52734375 0,-0.26953125 -0.257812,-0.515625 -0.539062,-0.515625 -0.269532,0 -0.515625,0.24609375 -0.515625,0.515625 0,0.26953125 0.234375,0.52734375 0.515625,0.52734375 z m 3.28125,0.12890625 c 1.863281,0 2.039062,-2.1679687 2.039062,-3.5742187 0,-1.6640625 -0.492187,-2.8007813 -1.792969,-2.8007813 -1.863281,0 -2.132812,1.8632813 -2.132812,3.3164063 0,2.1445312 0.644531,3.0117187 1.886719,3.0585937 z m 0.08203,-6.0585937 c 1.007812,0 1.207031,1.3476562 1.207031,3.0703125 0,1.3007812 -0.117187,2.67187495 -1.171875,2.67187495 -0.996094,0 -1.242187,-1.24218745 -1.242187,-2.98828125 0,-1.3828125 0.09375,-2.7539062 1.148437,-2.7539062 z m 4.417969,6.0585937 c 1.863281,0 2.039062,-2.1679687 2.039062,-3.5742187 0,-1.6640625 -0.492187,-2.8007813 -1.792969,-2.8007813 -1.863281,0 -2.132812,1.8632813 -2.132812,3.3164063 0,2.1445312 0.644531,3.0117187 1.886719,3.0585937 z m 0.08203,-6.0585937 c 1.007812,0 1.207031,1.3476562 1.207031,3.0703125 0,1.3007812 -0.117187,2.67187495 -1.171875,2.67187495 -0.996094,0 -1.242187,-1.24218745 -1.242187,-2.98828125 0,-1.3828125 0.09375,-2.7539062 1.148437,-2.7539062 z m 2.660156,1.40625 h 0.28125 l 0.164063,-0.5039063 c 0.09375,-0.3046875 0.644531,-0.6210937 1.101562,-0.6210937 0.597656,0 1.089844,0.4453125 1.089844,1.0429687 0,0.609375 -0.445313,1.2421875 -1.195313,1.2421875 -0.140625,0 -0.257812,-0.011719 -0.398437,-0.023437 l -0.105469,0.4804688 0.05859,0.046875 c 0.199219,-0.082031 0.433594,-0.1992188 0.738281,-0.1992188 0.820313,0 1.195313,0.5273438 1.195313,1.3242188 0,0.7851562 -0.480469,1.49999995 -1.324219,1.49999995 -0.890625,0 -1.347656,-0.43359375 -1.617188,-1.27734375 l -0.234375,0.082031 c 0.164063,0.49218745 0.269532,0.9492187 0.304688,1.3242187 0.351562,0.12890625 0.855469,0.234375 1.160156,0.234375 1.277344,0 2.554688,-1.04296875 2.554688,-2.15625 0,-0.8320312 -0.503907,-1.2539062 -1.382813,-1.3828125 0.539063,-0.3984375 0.984375,-0.9023437 0.984375,-1.4648437 0,-0.84375 -0.644531,-1.3710938 -1.652344,-1.3710938 -0.574218,0 -1.078125,0.1640625 -1.464843,0.5976563 z m 6.257813,4.6523437 c 1.863281,0 2.039062,-2.1679687 2.039062,-3.5742187 0,-1.6640625 -0.492187,-2.8007813 -1.792969,-2.8007813 -1.863281,0 -2.132812,1.8632813 -2.132812,3.3164063 0,2.1445312 0.644531,3.0117187 1.886719,3.0585937 z m 0.08203,-6.0585937 c 1.007812,0 1.207031,1.3476562 1.207031,3.0703125 0,1.3007812 -0.117187,2.67187495 -1.171875,2.67187495 -0.996094,0 -1.242187,-1.24218745 -1.242187,-2.98828125 0,-1.3828125 0.09375,-2.7539062 1.148437,-2.7539062 z M 110.24334,0.176375 c 1.86328,0 2.03906,-2.1679687 2.03906,-3.5742187 0,-1.6640625 -0.49218,-2.8007813 -1.79296,-2.8007813 -1.86329,0 -2.13282,1.8632813 -2.13282,3.3164063 0,2.1445312 0.64453,3.0117187 1.88672,3.0585937 z m 0.082,-6.0585937 c 1.00782,0 1.20703,1.3476562 1.20703,3.0703125 0,1.3007812 -0.11718,2.67187495 -1.17187,2.67187495 -0.99609,0 -1.24219,-1.24218745 -1.24219,-2.98828125 0,-1.3828125 0.0937,-2.7539062 1.14844,-2.7539062 z m 3.38672,5.92968745 c 0.29297,0 0.53906,-0.2578125 0.53906,-0.52734375 0,-0.26953125 -0.25781,-0.515625 -0.53906,-0.515625 -0.26953,0 -0.51562,0.24609375 -0.51562,0.515625 0,0.26953125 0.23437,0.52734375 0.51562,0.52734375 z m 3.28125,0.12890625 c 1.86328,0 2.03906,-2.1679687 2.03906,-3.5742187 0,-1.6640625 -0.49218,-2.8007813 -1.79296,-2.8007813 -1.86329,0 -2.13282,1.8632813 -2.13282,3.3164063 0,2.1445312 0.64453,3.0117187 1.88672,3.0585937 z m 0.082,-6.0585937 c 1.00782,0 1.20703,1.3476562 1.20703,3.0703125 0,1.3007812 -0.11718,2.67187495 -1.17187,2.67187495 -0.99609,0 -1.24219,-1.24218745 -1.24219,-2.98828125 0,-1.3828125 0.0937,-2.7539062 1.14844,-2.7539062 z m 4.41797,6.0585937 c 1.86328,0 2.03906,-2.1679687 2.03906,-3.5742187 0,-1.6640625 -0.49218,-2.8007813 -1.79296,-2.8007813 -1.86329,0 -2.13282,1.8632813 -2.13282,3.3164063 0,2.1445312 0.64453,3.0117187 1.88672,3.0585937 z m 0.082,-6.0585937 c 1.00782,0 1.20703,1.3476562 1.20703,3.0703125 0,1.3007812 -0.11718,2.67187495 -1.17187,2.67187495 -0.99609,0 -1.24219,-1.24218745 -1.24219,-2.98828125 0,-1.3828125 0.0937,-2.7539062 1.14844,-2.7539062 z m 2.66016,1.40625 h 0.28125 l 0.16406,-0.5039063 c 0.0937,-0.3046875 0.64453,-0.6210937 1.10156,-0.6210937 0.59766,0 1.08985,0.4453125 1.08985,1.0429687 0,0.609375 -0.44531,1.2421875 -1.19531,1.2421875 -0.14063,0 -0.25782,-0.011719 -0.39844,-0.023437 l -0.10547,0.4804688 0.0586,0.046875 c 0.19922,-0.082031 0.4336,-0.1992188 0.73828,-0.1992188 0.82032,0 1.19532,0.5273438 1.19532,1.3242188 0,0.7851562 -0.48047,1.49999995 -1.32422,1.49999995 -0.89063,0 -1.34766,-0.43359375 -1.61719,-1.27734375 l -0.23437,0.082031 c 0.16406,0.49218745 0.26953,0.9492187 0.30468,1.3242187 0.35157,0.12890625 0.85547,0.234375 1.16016,0.234375 1.27734,0 2.55469,-1.04296875 2.55469,-2.15625 0,-0.8320312 -0.50391,-1.2539062 -1.38282,-1.3828125 0.53907,-0.3984375 0.98438,-0.9023437 0.98438,-1.4648437 0,-0.84375 -0.64453,-1.3710938 -1.65234,-1.3710938 -0.57422,0 -1.07813,0.1640625 -1.46485,0.5976563 z m 4.25391,4.26562495 v 0.234375 c 0.66796,0 1.33593,-0.0234375 2.01562,-0.0234375 0.69141,0 1.35938,0.0234375 2.05078,0.0234375 0,-0.12890625 -0.0117,-0.26953125 -0.0117,-0.3984375 0,-0.140625 0.0117,-0.26953125 0.0117,-0.41015625 -1.03125,0.0351563 -2.07422,0.09375 -3.10547,0.09375 l 1.62891,-1.734375 c 0.78516,-0.8203125 1.14844,-1.3476562 1.14844,-2.0976562 0,-0.8789063 -0.52735,-1.6757813 -1.83985,-1.6757813 -0.58593,0 -1.13672,0.1757813 -1.53515,0.6328125 -0.0586,0.3984375 -0.0937,0.8085938 -0.15235,1.21875 h 0.25782 l 0.11718,-0.4101562 c 0.17578,-0.609375 0.53907,-0.75 1.13672,-0.75 0.75,0 1.20703,0.5390625 1.20703,1.265625 0,0.5625 -0.24609,1.1835937 -1.39453,2.4023437 z m 34.9454,0.38671875 c 1.86328,0 2.03906,-2.1679687 2.03906,-3.5742187 0,-1.6640625 -0.49219,-2.8007813 -1.79297,-2.8007813 -1.86328,0 -2.13281,1.8632813 -2.13281,3.3164063 0,2.1445312 0.64453,3.0117187 1.88672,3.0585937 z m 0.082,-6.0585937 c 1.00781,0 1.20703,1.3476562 1.20703,3.0703125 0,1.3007812 -0.11719,2.67187495 -1.17187,2.67187495 -0.9961,0 -1.24219,-1.24218745 -1.24219,-2.98828125 0,-1.3828125 0.0937,-2.7539062 1.14844,-2.7539062 z m 3.38672,5.92968745 c 0.29297,0 0.53906,-0.2578125 0.53906,-0.52734375 0,-0.26953125 -0.25781,-0.515625 -0.53906,-0.515625 -0.26953,0 -0.51563,0.24609375 -0.51563,0.515625 0,0.26953125 0.23438,0.52734375 0.51563,0.52734375 z m 3.28125,0.12890625 c 1.86328,0 2.03906,-2.1679687 2.03906,-3.5742187 0,-1.6640625 -0.49219,-2.8007813 -1.79297,-2.8007813 -1.86328,0 -2.13281,1.8632813 -2.13281,3.3164063 0,2.1445312 0.64453,3.0117187 1.88672,3.0585937 z m 0.082,-6.0585937 c 1.00781,0 1.20703,1.3476562 1.20703,3.0703125 0,1.3007812 -0.11719,2.67187495 -1.17187,2.67187495 -0.9961,0 -1.24219,-1.24218745 -1.24219,-2.98828125 0,-1.3828125 0.0937,-2.7539062 1.14844,-2.7539062 z m 4.41797,6.0585937 c 1.86328,0 2.03906,-2.1679687 2.03906,-3.5742187 0,-1.6640625 -0.49219,-2.8007813 -1.79297,-2.8007813 -1.86328,0 -2.13281,1.8632813 -2.13281,3.3164063 0,2.1445312 0.64453,3.0117187 1.88672,3.0585937 z m 0.082,-6.0585937 c 1.00781,0 1.20703,1.3476562 1.20703,3.0703125 0,1.3007812 -0.11719,2.67187495 -1.17187,2.67187495 -0.9961,0 -1.24219,-1.24218745 -1.24219,-2.98828125 0,-1.3828125 0.0937,-2.7539062 1.14844,-2.7539062 z m 2.66016,1.40625 h 0.28125 l 0.16406,-0.5039063 c 0.0937,-0.3046875 0.64453,-0.6210937 1.10156,-0.6210937 0.59766,0 1.08984,0.4453125 1.08984,1.0429687 0,0.609375 -0.44531,1.2421875 -1.19531,1.2421875 -0.14062,0 -0.25781,-0.011719 -0.39844,-0.023437 l -0.10546,0.4804688 0.0586,0.046875 c 0.19922,-0.082031 0.43359,-0.1992188 0.73828,-0.1992188 0.82031,0 1.19531,0.5273438 1.19531,1.3242188 0,0.7851562 -0.48047,1.49999995 -1.32422,1.49999995 -0.89062,0 -1.34765,-0.43359375 -1.61718,-1.27734375 l -0.23438,0.082031 c 0.16406,0.49218745 0.26953,0.9492187 0.30469,1.3242187 0.35156,0.12890625 0.85547,0.234375 1.16016,0.234375 1.27734,0 2.55468,-1.04296875 2.55468,-2.15625 0,-0.8320312 -0.5039,-1.2539062 -1.38281,-1.3828125 0.53906,-0.3984375 0.98438,-0.9023437 0.98438,-1.4648437 0,-0.84375 -0.64454,-1.3710938 -1.65235,-1.3710938 -0.57422,0 -1.07812,0.1640625 -1.46484,0.5976563 z m 6.63281,2.8476562 v 0.6796875 c 0,0.609375 -0.16406,0.65625 -0.53906,0.6796875 L 182.9581,-0.2455 v 0.26953125 c 0.46875,0 0.92578,-0.0234375 1.40625,-0.0234375 0.48046,0 0.94921,0.0234375 1.41796,0.0234375 V -0.2455 l -0.42187,-0.0234375 C 184.97381,-0.292375 184.82147,-0.33925 184.82147,-0.948625 v -0.6796875 c 0.35156,0 0.6914,0 0.96093,0.035156 V -2.225969 c -0.23437,0.011719 -0.48046,0.023437 -0.72656,0.023437 h -0.23437 v -1.2539063 c 0,-1.3710937 0.0117,-2.4609375 0.0586,-2.7421875 l -0.10547,-0.046875 -0.66797,0.2460938 -2.54297,4.1601562 0.0937,0.2109375 z m 0,-0.5742187 h -1.9336 l 1.92188,-3.140625 h 0.0117 z M 4.9122875,-16.508195 h 0.28125 L 5.3576,-17.012102 c 0.09375,-0.304687 0.6445312,-0.621093 1.1015625,-0.621093 0.5976562,0 1.0898437,0.445312 1.0898437,1.042968 0,0.609375 -0.4453125,1.242188 -1.1953125,1.242188 -0.140625,0 -0.2578125,-0.01172 -0.3984375,-0.02344 l -0.1054687,0.480469 0.058594,0.04687 c 0.1992188,-0.08203 0.4335938,-0.199219 0.7382813,-0.199219 0.8203125,0 1.1953125,0.527344 1.1953125,1.324219 0,0.785156 -0.4804688,1.5 -1.3242188,1.5 -0.890625,0 -1.3476562,-0.433594 -1.6171875,-1.277344 l -0.234375,0.08203 c 0.1640625,0.492187 0.2695313,0.949218 0.3046875,1.324218 0.3515625,0.128907 0.8554688,0.234375 1.1601563,0.234375 1.2773437,0 2.5546875,-1.042968 2.5546875,-2.15625 0,-0.832031 -0.5039063,-1.253906 -1.3828125,-1.382812 0.5390625,-0.398438 0.984375,-0.902344 0.984375,-1.464844 0,-0.84375 -0.6445313,-1.371094 -1.6523438,-1.371094 -0.5742187,0 -1.078125,0.164063 -1.4648437,0.597657 z M 7.0451,-58.221086 v 0.679688 c 0,0.609375 -0.1640625,0.65625 -0.5390625,0.679687 l -0.5625,0.02344 v 0.269531 c 0.46875,0 0.9257812,-0.02344 1.40625,-0.02344 0.4804687,0 0.9492187,0.02344 1.4179687,0.02344 v -0.269531 l -0.421875,-0.02344 c -0.3867187,-0.02344 -0.5390625,-0.07031 -0.5390625,-0.679687 v -0.679688 c 0.3515625,0 0.6914063,0 0.9609375,0.03516 v -0.632812 c -0.234375,0.01172 -0.4804687,0.02344 -0.7265625,0.02344 h -0.234375 v -1.253906 c 0,-1.371094 0.011719,-2.460937 0.058594,-2.742187 l -0.1054688,-0.04687 -0.6679687,0.246093 -2.5429688,4.160157 0.09375,0.210937 z m 0,-0.574219 H 5.1115062 l 1.921875,-3.140625 H 7.0451 Z m -24.27832,-47.868165 c 0,0.23438 -0.01172,0.42188 -0.04687,0.51563 -0.03516,0.082 -0.128907,0.11718 -0.292969,0.1289 l -0.410156,0.0234 v 0.26953 c 0.328125,0 0.679687,-0.0234 1.125,-0.0234 0.445312,0 0.796875,0.0234 1.125,0.0234 v -0.26953 l -0.410157,-0.0234 c -0.152343,-0.0117 -0.257812,-0.0469 -0.292968,-0.1289 -0.03516,-0.0937 -0.04687,-0.28125 -0.04687,-0.51563 v -5.54297 l -0.08203,-0.082 c -0.445312,0.1875 -0.925781,0.26953 -1.394531,0.33985 v 0.24609 h 0.503906 c 0.199219,0 0.222657,0.16406 0.222657,0.375 z m 3.228515,-1.91015 c 0,-0.375 0.5625,-0.84375 1.113282,-0.84375 0.609375,0 1.03125,0.38671 1.03125,1.13671 v 2.55469 c 0.210937,0 0.46875,-0.0234 0.714843,-0.0234 0.257813,0 0.515625,0.0234 0.738282,0.0234 v -0.26953 l -0.363282,-0.0234 c -0.152343,-0.0117 -0.257812,-0.0469 -0.292968,-0.1289 -0.03516,-0.0937 -0.04687,-0.28125 -0.04687,-0.51563 v -1.74609 c 0,-0.97266 -0.421875,-1.5586 -1.476563,-1.5586 -0.363281,0 -0.539062,0.0469 -0.738281,0.22266 l -0.65625,0.57422 h -0.02344 v -0.76172 l -0.08203,-0.0352 c -0.328125,0.14063 -0.867187,0.31641 -1.40625,0.36329 v 0.25781 h 0.339844 c 0.1875,0 0.28125,0.0234 0.328125,0.0937 0.04687,0.0703 0.07031,0.26953 0.07031,0.5625 v 2.02734 c 0,0.23438 -0.01172,0.42188 -0.04687,0.51563 -0.03516,0.082 -0.140625,0.11718 -0.292968,0.1289 l -0.398438,0.0234 v 0.26953 c 0.304688,0 0.667969,-0.0234 1.113281,-0.0234 0.433594,0 0.796875,0.0234 1.113282,0.0234 v -0.26953 l -0.398438,-0.0234 c -0.164062,-0.0117 -0.257812,-0.0469 -0.292969,-0.1289 -0.03516,-0.0937 -0.04687,-0.28125 -0.04687,-0.51563 z m 0,0"
         style="fill:#231f20;fill-opacity:1;fill-rule:nonzero;stroke:none" /><path
         id="path432"
         d="m -7.0554859,-106.87441 c -0.09375,0.5625 -0.1523438,0.71485 -0.2226563,0.79688 -0.046875,0.0352 -0.140625,0.0703 -0.3046875,0.0703 l -0.3632812,0.0352 -0.035156,0.24609 c 0.3867188,0 0.7851563,-0.0234 1.1835938,-0.0234 0.3984375,0 0.8085937,0.0234 1.2539062,0.0234 l 0.023437,-0.24609 -0.5859375,-0.0352 c -0.2695312,-0.0117 -0.3164062,-0.10547 -0.3164062,-0.25781 0,-0.11719 0.011719,-0.22266 0.035156,-0.31641 l 0.7382813,-4.38281 c 0.035156,-0.21094 0.09375,-0.41016 0.140625,-0.62109 0.2109375,-0.0352 0.4101562,-0.0703 0.6210937,-0.0703 0.890625,0 1.3828125,0.32813 1.3828125,1.26563 0,0.82031 -0.5625,1.73437 -1.453125,1.73437 -0.2109375,0 -0.421875,-0.0586 -0.703125,-0.17578 l 0.023437,0.28125 c 0.2578125,0.12891 0.46875,0.21094 0.7617188,0.21094 1.1953125,0 2.15625,-1.08984 2.15625,-2.27344 0,-1.01953 -0.6679688,-1.35937 -1.5585938,-1.35937 h -0.082031 c -0.4101563,0 -0.8203125,0.0234 -1.2421875,0.0234 -0.5039063,0 -1.0078125,-0.0234 -1.4882813,-0.0234 l -0.023437,0.24609 0.4921875,0.0234 c 0.234375,0 0.3164063,0.082 0.3164063,0.23437 v 0.0234 c -0.011719,0.12891 -0.023437,0.31641 -0.082031,0.66797 z m 0,0"
         style="fill:#231f20;fill-opacity:1;fill-rule:nonzero;stroke:none" /><path
         id="path433"
         d="m 5.6740062,-106.59902 c 0.890625,0.0352 1.78125,0.0469 2.7421875,0.0469 l 0.046875,-0.0469 c -0.011719,-0.11718 -0.023437,-0.23437 -0.023437,-0.35156 0,-0.11719 0.011719,-0.23437 0.023437,-0.35156 l -0.046875,-0.0469 c -0.5273437,0.0234 -1.0429687,0.0469 -1.5703125,0.0469 -0.5273437,0 -1.0429687,-0.0234 -1.5585937,-0.0469 l -0.046875,0.0469 c 0.011719,0.31641 0.011719,0.73828 0.011719,1.17187 0,0.89063 -0.023437,1.82813 -0.046875,2.08594 l 0.1757813,0.0469 c 0.328125,-0.33985 0.5976562,-0.55078 1.1015625,-0.55078 0.890625,0 1.40625,0.63281 1.40625,1.59375 0,0.9375 -0.515625,1.58203 -1.5585938,1.58203 -0.3164062,0 -0.890625,-0.10547 -1.0546875,-0.39844 l -0.421875,-0.73828 -0.2109375,0.1289 c 0.1640625,0.39844 0.3164063,0.79688 0.4453125,1.19532 0.2109375,0.14062 0.703125,0.21093 0.9492188,0.21093 1.3007812,0 2.625,-1.04296 2.625,-2.44921 0,-1.07813 -0.7734375,-1.7461 -1.8164063,-1.7461 -0.4453125,0 -0.890625,0.22266 -1.2539062,0.45703 z m 1.03125,-38.93554 c 1.1367188,0 2.0273438,-0.89063 2.0273438,-2.13281 0,-1.00782 -0.5742188,-1.72266 -1.5820313,-1.72266 -0.65625,0 -0.9609375,0.32812 -1.4414062,0.70312 0.1640625,-1.6289 0.9960937,-2.55468 2.5546875,-3 v -0.0703 l -0.328125,-0.15234 c -1.8164063,0.48047 -3.1171875,1.99219 -3.1171875,3.98437 0,1.20703 0.5039062,2.39063 1.8867187,2.39063 z m 0.082031,-3.31641 c 0.84375,0 1.171875,0.73828 1.171875,1.47656 0,0.71485 -0.3046875,1.54688 -1.1484375,1.54688 -0.9492188,0 -1.1835938,-0.99609 -1.1835938,-1.75781 v -0.11719 c 0,-0.16406 0.011719,-0.35156 0.082031,-0.51563 0.1523437,-0.38671 0.65625,-0.63281 1.0781253,-0.63281 z m -1.7578125,-41.51074 0.082031,0.11719 c 0.1289063,0 0.28125,-0.0234 0.4101563,-0.0234 0.140625,0 0.28125,0.0234 0.421875,0.0234 0.3515625,-0.94922 0.8554687,-1.98047 1.40625,-2.98828 l 1.6523437,-2.96485 v -0.26953 c -0.65625,0.0234 -1.3242187,0.0469 -2.0039062,0.0469 -0.6679688,0 -1.3242188,-0.0234 -1.9921875,-0.0469 l -0.082031,0.0469 c 0.011719,0.3164 0.023437,0.62109 0.023437,0.92578 0,0.3164 -0.011719,0.63281 -0.023437,0.9375 h 0.2695313 l 0.058594,-0.50391 c 0.070312,-0.53906 0.1171875,-0.63281 0.5507813,-0.63281 h 2.4023437 c -0.328125,0.6914 -0.6445312,1.26562 -0.984375,1.80469 z M 88.803889,14.054305 c 0,0.234375 -0.01172,0.421875 -0.04687,0.515625 -0.03516,0.08203 -0.128906,0.117187 -0.292969,0.128906 l -0.410156,0.02344 v 0.269532 c 0.328125,0 0.679688,-0.02344 1.125,-0.02344 0.445313,0 0.796875,0.02344 1.125,0.02344 v -0.269532 l -0.410156,-0.02344 c -0.152344,-0.01172 -0.257813,-0.04687 -0.292969,-0.128906 -0.03516,-0.09375 -0.04687,-0.28125 -0.04687,-0.515625 V 8.5113359 l -0.08203,-0.082031 c -0.445313,0.1875 -0.925781,0.2695312 -1.394531,0.3398437 v 0.2460938 h 0.503906 c 0.199219,0 0.222656,0.1640625 0.222656,0.375 z m 6.357422,-5.6250003 h -0.539063 l -3.351562,7.6054683 h 0.539062 z m 0,0"
         style="fill:#231f20;fill-opacity:1;fill-rule:nonzero;stroke:none" /><path
         id="path434"
         d="m 99.456233,9.1558672 h 0.656247 c 0.48047,0 1.00782,0.046875 1.04297,0.1171875 0.0234,0.046875 0.0469,0.1523437 0.0469,0.2929687 v 0.070312 l -0.0469,0.5742186 h 0.25781 l 0.2461,-1.4648436 c -0.83203,0 -1.675783,0.023437 -2.519533,0.023437 -0.855469,0 -1.710938,-0.023437 -2.554688,-0.023437 l -0.164062,1.4648436 h 0.257812 l 0.128906,-0.5390623 c 0.04687,-0.1523438 0.09375,-0.3046875 0.164063,-0.3984375 0.05859,-0.070312 0.480469,-0.1171875 0.738281,-0.1171875 h 1.007813 l -0.785157,4.6874993 c -0.08203,0.5625 -0.152343,0.714844 -0.222656,0.796875 -0.04687,0.03516 -0.128906,0.07031 -0.292969,0.07031 l -0.457031,0.03516 -0.03516,0.246094 c 0.46875,0 0.867187,-0.02344 1.277344,-0.02344 0.398437,0 0.796875,0.02344 1.195312,0.02344 l 0.02344,-0.246094 -0.527344,-0.03516 c -0.28125,-0.01172 -0.328125,-0.105469 -0.328125,-0.257813 0,-0.117187 0.02344,-0.222656 0.03516,-0.316406 z m 9.260737,-0.7851563 c -1.26562,1.171875 -2.29687,2.5078121 -2.29687,4.1953121 0,1.371094 0.39844,2.214844 1.125,3.351563 l 0.19922,-0.117188 -0.23438,-0.492187 c -0.30468,-0.65625 -0.43359,-1.429688 -0.43359,-2.15625 0,-1.886719 0.53906,-3.1757813 1.83984,-4.5937501 z m 0,0"
         style="fill:#231f20;fill-opacity:1;fill-rule:nonzero;stroke:none" /><path
         id="path435"
         d="m 109.8742,14.054305 c 0,0.234375 -0.0117,0.421875 -0.0469,0.515625 -0.0352,0.08203 -0.12891,0.117187 -0.29297,0.128906 l -0.41016,0.02344 v 0.269532 c 0.32813,0 0.67969,-0.02344 1.125,-0.02344 0.44531,0 0.79688,0.02344 1.125,0.02344 v -0.269532 l -0.41015,-0.02344 c -0.15235,-0.01172 -0.25782,-0.04687 -0.29297,-0.128906 -0.0352,-0.09375 -0.0469,-0.28125 -0.0469,-0.515625 V 8.5113359 l -0.082,-0.082031 c -0.44531,0.1875 -0.92578,0.2695312 -1.39453,0.3398437 v 0.2460938 h 0.50391 c 0.19921,0 0.22265,0.1640625 0.22265,0.375 z m 6.35742,-5.6250003 h -0.53906 L 112.341,16.034773 h 0.53906 z m 2.72168,3.6093753 0.0937,-0.05859 3.12891,3.011719 c 0.28125,0 0.49219,-0.02344 0.71484,-0.02344 0.19922,0 0.42188,0.02344 0.58594,0.02344 v -0.269532 l -0.1875,-0.01172 c -0.16406,-0.02344 -0.32812,-0.164063 -0.5625,-0.375 l -2.96484,-2.800782 2.39062,-2.1679683 c 0.22266,-0.1992188 0.46875,-0.328125 0.70313,-0.3398438 l 0.375,-0.011719 v -0.269533 c -0.21094,0 -0.45703,0.023437 -0.71485,0.023437 -0.25781,0 -0.51562,-0.023437 -0.79687,-0.023437 v 0.234375 c 0,0.070312 -0.12891,0.2226563 -0.26953,0.3515625 l -2.4961,2.4374996 V 9.8472734 c 0,-0.3398437 0.0117,-0.5742187 0.082,-0.6796875 0.0469,-0.082031 0.16407,-0.1171875 0.375,-0.1289062 l 0.4336,-0.023437 V 8.7457109 c -0.46875,0.011719 -0.89063,0.023437 -1.30078,0.023437 -0.44532,0 -0.86719,-0.011719 -1.33594,-0.023437 v 0.2695313 l 0.43359,0.023437 c 0.21094,0.011719 0.31641,0.046875 0.375,0.1289062 0.0586,0.1054688 0.082,0.3398438 0.082,0.6796875 v 4.0429691 c 0,0.339844 -0.0234,0.574219 -0.082,0.667969 -0.0586,0.09375 -0.16406,0.128906 -0.375,0.140625 l -0.43359,0.02344 v 0.269532 c 0.46875,-0.01172 0.89062,-0.02344 1.33594,-0.02344 0.41015,0 0.83203,0.01172 1.30078,0.02344 v -0.269532 l -0.4336,-0.02344 c -0.21093,-0.01172 -0.32812,-0.04687 -0.375,-0.140625 -0.0703,-0.09375 -0.082,-0.328125 -0.082,-0.667969 z m 0,0"
         style="fill:#231f20;fill-opacity:1;fill-rule:nonzero;stroke:none" /><path
         id="path436"
         d="m 123.76678,15.917586 c 1.26562,-1.160156 2.28516,-2.496094 2.28516,-4.183594 0,-1.382812 -0.39844,-2.2148436 -1.11329,-3.3632811 l -0.19921,0.1171875 0.23437,0.4921875 c 0.30469,0.65625 0.43359,1.4296871 0.43359,2.1679691 0,1.886718 -0.53906,3.175781 -1.83984,4.582031 z m 0,0"
         style="fill:#231f20;fill-opacity:1;fill-rule:nonzero;stroke:none" /></g><path
       id="path437"
       d="M 564.856,303.828 H 500.061 V 318.1 h 64.795 z"
       style="fill:#ffffff;fill-opacity:1;fill-rule:nonzero;stroke:none"
       transform="matrix(1.3333333,0,0,-1.3333333,0,1148)" /><g
       id="g437"
       aria-label="Slope = −∆H"
       transform="matrix(1.3333333,0,0,1.3333333,659.0224,735.26093)"><path
         id="path438"
         d="m 4.0203094,-4.7337859 c 0,-0.421875 0.035156,-0.8085938 0.1289062,-1.265625 -0.3632812,-0.1523438 -0.9140625,-0.3867188 -1.6289062,-0.3867188 -1.078125,0 -2.30859377,0.6445313 -2.30859377,2.0390625 0,0.9375 0.5625,1.3828125 1.98046877,1.5351563 0.9140625,0.1171875 1.5820312,0.3515625 1.5820312,1.2070312 0,0.89062501 -0.8085937,1.39453126 -1.6171875,1.39453126 -0.703125,0 -1.41796872,-0.3515625 -1.46484372,-0.7265625 L 0.62187188,-1.5345672 H 0.32890313 v 0.3398438 c 0,0.32812496 0,0.69140621 -0.0585938,1.03124996 0.29296875,0.140625 0.91406247,0.33984375 1.53515617,0.33984375 1.3476563,0 2.71875,-0.73828125 2.71875,-2.27343751 0,-1.0195312 -0.7968749,-1.3359375 -2.0624999,-1.4765625 -1.125,-0.1289062 -1.48828127,-0.5039062 -1.48828127,-1.1132812 0,-0.890625 0.70312507,-1.3125 1.33593757,-1.3125 0.3515625,0 0.7265625,0.058594 0.9726562,0.2109375 0.3398438,0.2109375 0.375,0.3046875 0.3984375,0.5390625 l 0.058594,0.515625 z m 1.6435547,3.82031246 c 0,0.234375 -0.011719,0.421875 -0.046875,0.515625 -0.035156,0.0820313 -0.1289063,0.1171875 -0.2929688,0.12890625 l -0.4101562,0.0234375 v 0.26953125 c 0.328125,0 0.6796875,-0.0234374975 1.125,-0.0234374975 0.4453125,0 0.796875,0.0234374975 1.125,0.0234374975 v -0.26953125 l -0.4101563,-0.0234375 c -0.1523437,-0.0117188 -0.2578125,-0.046875 -0.2929687,-0.12890625 -0.035156,-0.09375 -0.046875,-0.28125 -0.046875,-0.515625 V -6.4564422 l -0.082031,-0.082031 c -0.4453125,0.1875 -0.9257812,0.2695312 -1.3945312,0.3398437 v 0.2460938 h 0.5039062 c 0.1992188,0 0.2226563,0.1640625 0.2226563,0.375 z m 3.9521484,1.08984375 c 1.3710935,0 2.3554685,-0.97265625 2.3554685,-2.34375001 0,-1.1484375 -0.890625,-2.0507812 -2.050781,-2.0507812 -1.4414062,0 -2.2851562,0.9375 -2.2851562,2.296875 0,1.20703121 0.8085937,2.09765621 1.9101562,2.09765621 z M 9.7214813,-3.9251922 c 0.8554687,0 1.4062497,0.9960938 1.4062497,2.15625 0,0.83203126 -0.351562,1.65234376 -1.1718747,1.65234376 -1.1484375,0 -1.4882813,-1.25390626 -1.4882813,-2.19140626 0,-0.84375 0.2929688,-1.6171875 1.2539063,-1.6171875 z m 3.3574217,5.5078125 c 0,0.2460938 -0.01172,0.421875 -0.04687,0.5273438 -0.03516,0.082031 -0.128906,0.1171875 -0.292969,0.1171875 l -0.410156,0.035156 v 0.2695313 c 0.328125,-0.011719 0.691406,-0.023437 1.125,-0.023437 0.445313,0 0.796875,0.011719 1.125,0.023437 V 2.2623078 l -0.410156,-0.035156 c -0.152344,0 -0.257813,-0.035156 -0.292969,-0.1171875 -0.03516,-0.1054688 -0.04687,-0.28125 -0.04687,-0.5273438 v -1.69921874 c 0.292969,0.1875 0.703125,0.22265625 0.984375,0.22265625 0.234375,0 0.46875,-0.046875 0.621094,-0.140625 l 1.03125,-0.66796875 c 0.292969,-0.1875 0.773437,-1.08984376 0.773437,-1.68749996 0,-1.1015625 -0.867187,-1.828125 -1.816406,-1.828125 -0.386719,0 -0.703125,0.082031 -0.855469,0.2226562 l -0.714843,0.65625 h -0.02344 v -0.84375 l -0.08203,-0.035156 c -0.328125,0.140625 -0.867188,0.3164062 -1.394531,0.3632812 v 0.2578125 h 0.328125 c 0.1875,0 0.28125,0.023437 0.339843,0.09375 0.03516,0.070312 0.05859,0.2695313 0.05859,0.5625 z m 0.75,-4.2890625 c 0,-0.082031 0,-0.1640625 0.04687,-0.2460937 0.152344,-0.28125 0.515625,-0.6796875 1.183594,-0.6796875 0.9375,0 1.40625,0.6679687 1.40625,1.5234375 0,1.0078125 -0.621094,1.75781246 -1.359375,1.75781246 -0.503906,0 -0.925781,-0.12890625 -1.277344,-0.52734375 z m 6.111328,-1.21875 c 0.65625,0 0.960938,0.6914063 0.960938,1.5234375 -0.316406,0.011719 -0.65625,0.023437 -1.007813,0.023437 -0.363281,0 -0.75,-0.011719 -1.136718,-0.046875 v -0.1171875 c 0,-0.9023437 0.515625,-1.3828125 1.183593,-1.382812 z m 0.04687,-0.2929687 c -0.304687,0 -0.5625,0.09375 -0.878906,0.2460937 -0.199219,0.082031 -0.386719,0.2226563 -0.5625,0.3515625 -0.410156,0.328125 -0.644531,0.84375 -0.644531,1.7226563 0,1.21874996 0.714844,2.07421871 2.074219,2.07421871 0.621093,0 1.382812,-0.38671875 1.441406,-0.50390625 l 0.1875,-0.3046875 -0.117188,-0.0820313 c -0.351562,0.19921875 -0.691406,0.421875 -1.125,0.421875 -1.101562,0 -1.628906,-0.72656256 -1.628906,-1.78125006 h 1.324219 c 0.539062,0 1.078125,-0.035156 1.628906,-0.1171875 0.01172,-0.1289062 0.01172,-0.2578125 0.01172,-0.3867187 0,-1.0078125 -0.726563,-1.6406249 -1.710938,-1.6406249 z m 0,0"
         style="fill:#231f20;fill-opacity:1;fill-rule:nonzero;stroke:none" /><path
         id="path439"
         d="m 30.627731,-3.5033172 v -0.4101562 h -5.308593 v 0.4101562 z m 0,1.6054688 v -0.4101563 h -5.308593 v 0.4101563 z m 9.747071,-0.796875 v -0.421875 h -5.308594 v 0.421875 z m 4.168945,-3.796875 H 44.367966 L 41.754684,5.890625e-4 h 5.4375 z m -0.433594,1.3242187 1.722656,4.33593751 h -3.46875 z m 0,0"
         style="fill:#231f20;fill-opacity:1;fill-rule:nonzero;stroke:none" /><path
         id="path440"
         d="m 49.468552,-3.4681609 0.375,-2.0507813 c 0.05859,-0.3398437 0.128906,-0.3984375 0.457031,-0.4335937 l 0.375,-0.023437 0.03516,-0.2460938 c -0.28125,0 -0.65625,0.023437 -1.03125,0.023437 -0.375,0 -0.75,-0.023437 -1.265625,-0.023437 l -0.02344,0.2460938 0.421875,0.023437 c 0.234375,0 0.316406,0.082031 0.316406,0.234375 v 0.023437 c -0.01172,0.1289062 -0.02344,0.3164062 -0.08203,0.6679687 l -0.667969,3.9023438 c -0.105469,0.56249996 -0.152344,0.71484371 -0.222656,0.79687496 -0.04687,0.0351563 -0.140625,0.0703125 -0.304688,0.0703125 l -0.363281,0.0351563 -0.03516,0.24609375 c 0.386718,0 0.785156,-0.0234374975 1.183593,-0.0234374975 0.398438,0 0.796875,0.0234374975 1.113282,0.0234374975 l 0.02344,-0.24609375 -0.445312,-0.0351563 c -0.28125,-0.0117188 -0.316407,-0.10546875 -0.316407,-0.2578125 0,-0.1171875 0.01172,-0.22265625 0.03516,-0.31640625 l 0.375,-2.22656251 c 0.550781,-0.011719 1.101562,-0.023437 1.652343,-0.023437 0.550782,0 1.113282,0.011719 1.664063,0.023437 l -0.363281,1.9335938 c -0.105469,0.56249996 -0.152344,0.71484371 -0.222657,0.79687496 -0.04687,0.0351563 -0.140625,0.0703125 -0.304687,0.0703125 l -0.445313,0.0351563 -0.03516,0.24609375 c 0.46875,0 0.867188,-0.0234374975 1.265625,-0.0234374975 0.398438,0 0.796875,0.0234374975 1.183594,0.0234374975 l 0.03516,-0.24609375 -0.527344,-0.0351563 c -0.28125,-0.0117188 -0.316406,-0.10546875 -0.316406,-0.2578125 0,-0.1171875 0.01172,-0.22265625 0.03516,-0.31640625 l 0.820313,-4.68750001 c 0.07031,-0.3398437 0.128906,-0.3984375 0.457031,-0.4335937 l 0.328125,-0.023437 0.02344,-0.2460938 c -0.234375,0 -0.609375,0.023437 -0.984375,0.023437 -0.375,0 -0.761719,-0.023437 -1.265625,-0.023437 l -0.02344,0.2460938 0.433594,0.023437 c 0.234375,0 0.316406,0.082031 0.316406,0.234375 v 0.023437 c -0.01172,0.1289062 -0.02344,0.3164062 -0.08203,0.6679687 l -0.269531,1.5585938 z m 0,0"
         style="fill:#231f20;fill-opacity:1;fill-rule:nonzero;stroke:none" /></g><path
       id="path441"
       d="m 2.8232062,-2.2630828 c 0.082031,-0.1875 0.1875,-0.4101563 0.3515625,-0.421875 l 0.1875,-0.011719 V -2.872458 c -0.1875,0.011719 -0.3867187,0.023437 -0.5859375,0.023437 -0.1875,0 -0.3867187,-0.011719 -0.5859375,-0.023437 v 0.1757812 l 0.2578125,0.011719 c 0.09375,0.011719 0.1523438,0.058594 0.1523438,0.1757812 0,0.09375 -0.035156,0.2460938 -0.1171875,0.4453125 L 2.2138312,-1.3958953 C 2.0966437,-1.1029266 1.9560187,-0.80995781 1.8271125,-0.52870781 L 1.0888312,-2.3216766 c -0.035156,-0.09375 -0.058594,-0.1757812 -0.058594,-0.2226562 0,-0.09375 0.058594,-0.1289063 0.1523437,-0.140625 l 0.3046875,-0.011719 V -2.872458 c -0.234375,0.011719 -0.4804687,0.023437 -0.7148437,0.023437 -0.24609375,0 -0.4921875,-0.011719 -0.73828125,-0.023437 v 0.1757812 l 0.2109375,0.011719 c 0.1171875,0.011719 0.1640625,0.1171875 0.19921875,0.2109375 l 1.078125,2.51953124 h 0.3046875 c 0.09375,-0.2109375 0.1523437,-0.45703125 0.2578125,-0.6796875 z m 2.1152344,0.5742187 c -0.5742187,0.1054688 -1.2070312,0.2929688 -1.2070312,1.00781254 0,0.50390625 0.3398437,0.75 0.7617187,0.75 0.1171875,0 0.234375,-0.01171875 0.2929688,-0.046875 l 0.7734375,-0.5390625 -0.035156,0.5390625 c 0.1640625,-0.01171875 0.3164063,-0.0234375 0.4804688,-0.0234375 0.1523437,0 0.3164062,0.01171875 0.46875,0.0234375 v -0.1875 l -0.2460938,-0.0117188 c -0.082031,-0.0117188 -0.140625,-0.0351563 -0.1523437,-0.09375 -0.011719,-0.0703125 -0.023437,-0.17578125 -0.023437,-0.26953125 V -1.6888641 c 0,-0.9023437 -0.234375,-1.2421875 -1.0195313,-1.2421875 -0.1992187,0 -0.4453125,0.046875 -0.7148437,0.2109375 l -0.3398438,0.1992188 v 0.4101562 l 0.1640625,0.046875 0.082031,-0.1992187 c 0.035156,-0.082031 0.070312,-0.1523438 0.1054687,-0.2109375 0.082031,-0.1054688 0.1757813,-0.1289063 0.4453125,-0.1289063 0.5390625,0 0.7851563,0.3046875 0.7851563,0.7851563 v 0.011719 z m 0.6210938,0.91406254 c -0.023437,0.0351563 -0.1054688,0.12890625 -0.1992188,0.19921875 -0.2109375,0.1640625 -0.4101562,0.29296875 -0.609375,0.29296875 -0.2460937,0 -0.4804687,-0.19921875 -0.4804687,-0.515625 0,-0.22265624 0.1523437,-0.49218754 0.375,-0.58593754 0.3164062,-0.1171875 0.5976562,-0.1757812 0.9140625,-0.2109375 z M 7.2294562,1.1001984 c 0,0.1640625 -0.011719,0.2929688 -0.035156,0.3632813 -0.023437,0.058594 -0.09375,0.082031 -0.1992188,0.082031 l -0.2929687,0.023437 v 0.1875 c 0.2226562,-0.011719 0.4804687,-0.023437 0.7851562,-0.023437 0.3046875,0 0.5507813,0.011719 0.7851563,0.023437 v -0.1875 l -0.292969,-0.023437 c -0.1054687,0 -0.1757812,-0.023437 -0.1992187,-0.082031 C 7.7568,1.3931672 7.7450812,1.2642609 7.7450812,1.1001984 V -0.08339531 C 7.9443,0.04551094 8.2372687,0.06894844 8.4247687,0.06894844 c 0.1640625,0 0.328125,-0.0234375 0.4335938,-0.09375 l 0.7148437,-0.46875 c 0.2109375,-0.12890625 0.5390628,-0.75000004 0.5390628,-1.16015624 0,-0.7734375 -0.5976565,-1.2773438 -1.2656253,-1.2773438 -0.2695312,0 -0.4804687,0.058594 -0.5859375,0.1523438 L 7.7568,-2.3216766 H 7.745081 v -0.5859375 l -0.058594,-0.023437 c -0.2226563,0.1054688 -0.5976563,0.2226563 -0.9726563,0.2578125 v 0.1757813 h 0.234375 c 0.1289063,0 0.1992188,0.011719 0.234375,0.070312 0.023437,0.046875 0.046875,0.1875 0.046875,0.3867187 z m 0.515625,-2.9765625 c 0,-0.058594 0,-0.1171875 0.035156,-0.1757812 0.1054687,-0.1875 0.3515625,-0.46875 0.8203125,-0.46875 0.65625,0 0.9726562,0.46875 0.9726562,1.0546875 0,0.70312499 -0.4335937,1.21874999 -0.9375,1.21874999 -0.3515625,0 -0.6445312,-0.09375 -0.890625,-0.36328125 z m 0,0"
       style="fill:#231f20;fill-opacity:1;fill-rule:nonzero;stroke:none"
       aria-label="vap"
       transform="matrix(1.3333333,0,0,1.3333333,731.6576,737.9276)" /><g
       id="g441"
       aria-label="/R"
       transform="matrix(1.3333333,0,0,1.3333333,745.20747,735.26093)"><path
         id="path442"
         d="M 4.6754547,-6.5384734 H 4.1363922 L 0.78482969,1.0669953 H 1.3238922 Z m 0,0"
         style="fill:#231f20;fill-opacity:1;fill-rule:nonzero;stroke:none" /><path
         id="path443"
         d="m 6.1022125,-1.1244109 c -0.09375,0.56249996 -0.1523437,0.71484371 -0.2226562,0.79687496 -0.046875,0.0351563 -0.140625,0.0703125 -0.3046875,0.0703125 l -0.3632813,0.0351563 -0.035156,0.24609375 c 0.3867187,0 0.7851562,-0.0234374975 1.1835937,-0.0234374975 0.3984375,0 0.8085938,0.0234374975 1.1132813,0.0234374975 L 7.4967435,-0.22206714 7.051431,-0.25722344 C 6.7819,-0.26894219 6.735025,-0.36269219 6.735025,-0.51503594 c 0,-0.1171875 0.011719,-0.22265625 0.035156,-0.31640625 L 7.5319,-5.2142547 c 0.035156,-0.2109375 0.1054688,-0.4101562 0.140625,-0.6210937 0.3164063,-0.070312 0.5507813,-0.070312 0.7382813,-0.070312 0.6796875,0 1.1484375,0.3164062 1.1484375,1.03125 0,0.8554687 -0.7265625,1.4765625 -1.640625,1.4765625 H 7.5201813 l -0.023437,0.09375 1.6523437,2.47265621 c 0.1875,0.28125 0.3398438,0.57421875 0.5039063,0.85546875 0.1992187,0 0.3984377,-0.0234374975 0.5976557,-0.0234374975 0.199219,0 0.398439,0.0234374975 0.597657,0.0234374975 v -0.234375 C 10.461588,-0.25722344 10.3444,-0.38612969 10.121744,-0.71425469 L 8.4694,-3.1869109 c 0.9140625,-0.1171875 1.886719,-0.8554688 1.886719,-1.8398438 0,-0.9140625 -0.7382815,-1.1953125 -1.511719,-1.1953125 H 8.774088 c -0.4453125,0 -0.9023437,0.023437 -1.3476562,0.023437 -0.4453125,0 -0.9140625,-0.023437 -1.359375,-0.023437 l -0.023437,0.2460938 0.5039062,0.023437 c 0.234375,0 0.3164063,0.082031 0.3164063,0.234375 v 0.023437 c -0.011719,0.1289062 -0.023437,0.3164062 -0.082031,0.6679687 z m 0,0"
         style="fill:#231f20;fill-opacity:1;fill-rule:nonzero;stroke:none" /></g></g></svg>
